<svg viewBox="0 0 436 436" fill="none" xmlns="http://www.w3.org/2000/svg">
<g clip-path="url(#clip0_178_4)">
<path d="M88.0531 21C88.8685 22.7909 89.4246 24.8226 90.0713 26.6852C91.1812 29.9446 92.3727 33.1738 93.6458 36.373C94.3142 38.0749 95.0129 39.7644 95.7419 41.4414C96.4705 43.1184 97.229 44.7818 98.0173 46.4317C98.8052 48.0817 99.6223 49.7171 100.468 51.3379C101.315 52.9587 102.19 54.5641 103.093 56.1539C103.997 57.7435 104.928 59.3165 105.888 60.8729C106.848 62.4295 107.835 63.9684 108.849 65.4896C109.863 67.0111 110.905 68.514 111.973 69.9982C113.041 71.4825 114.134 72.9472 115.255 74.3923C116.385 73.5421 117.525 72.7061 118.676 71.884C119.827 71.062 120.988 70.2544 122.159 69.4613C123.33 68.6682 124.511 67.8899 125.702 67.1263C126.892 66.3625 128.091 65.6137 129.3 64.8799C130.509 64.1459 131.727 63.427 132.954 62.7233C134.181 62.0197 135.416 61.3313 136.66 60.6583C137.904 59.9856 139.157 59.3283 140.417 58.6865C141.677 58.0444 142.945 57.4182 144.221 56.8079C145.497 56.1977 146.78 55.6033 148.071 55.0248C149.362 54.4466 150.659 53.8844 151.964 53.3383C153.268 52.7918 154.579 52.2619 155.897 51.7484C157.215 51.2349 158.539 50.7377 159.869 50.2569C161.199 49.7763 162.535 49.3124 163.877 48.865C165.218 48.4174 166.565 47.9866 167.918 47.5728C169.27 47.1586 170.627 46.7614 171.99 46.381C173.352 46.0009 174.718 45.6377 176.09 45.2914C177.461 44.9451 178.836 44.6158 180.216 44.3036C181.595 43.9915 182.978 43.6966 184.365 43.4188C185.752 43.1411 187.142 42.8806 188.535 42.6374C189.929 42.3942 191.325 42.1683 192.723 41.9598C194.122 41.7513 195.523 41.5602 196.927 41.3865C198.331 41.2128 199.736 41.0566 201.144 40.9179C202.551 40.7791 203.96 40.6579 205.371 40.5542C206.781 40.4504 208.193 40.3642 209.606 40.2956C211.018 40.2269 212.431 40.1758 213.845 40.1423C215.259 40.1088 216.673 40.0928 218.088 40.0944C219.502 40.096 220.916 40.1152 222.33 40.152C223.744 40.1887 225.157 40.2431 226.569 40.315C227.982 40.3868 229.393 40.4763 230.803 40.5832C232.214 40.6902 233.622 40.8146 235.029 40.9566C236.437 41.0986 237.842 41.258 239.245 41.4349C240.648 41.6118 242.049 41.8061 243.448 42.0178C245.654 42.3584 247.854 42.7415 250.047 43.1671C252.239 43.5927 254.422 44.0605 256.596 44.5706C258.77 45.0804 260.934 45.6322 263.087 46.226C265.24 46.8195 267.38 47.4545 269.508 48.131C271.637 48.8074 273.751 49.5245 275.852 50.2824C277.953 51.0406 280.038 51.8391 282.107 52.6779C284.177 53.5167 286.23 54.395 288.266 55.313C290.301 56.231 292.319 57.188 294.317 58.1841C297.776 59.9421 301.12 61.9735 304.48 63.9142C310.077 67.1472 315.856 70.5815 320.872 74.6733C330.511 61.9552 337.94 48.194 343.756 33.3517C345.283 29.4524 346.492 25.4454 347.95 21.5246C352.691 38.5381 353.749 56.1365 350.107 73.4756C355.505 67.9983 359.406 61.515 362.126 54.3576C363.439 67.7837 362.352 82.2049 357.725 94.9516C356.553 98.1798 354.618 101.148 353.482 104.358C357.33 108.373 360.356 113.463 363.293 118.177C367.899 125.567 372.022 133.072 375.54 141.048C382.71 157.304 388.217 177.507 389.286 195.284C391.922 195.256 394.566 195.189 397.202 195.227C397.278 196.748 397.333 198.269 397.367 199.79C397.401 201.312 397.415 202.834 397.408 204.356C397.401 205.878 397.373 207.4 397.325 208.921C397.277 210.442 397.208 211.963 397.119 213.482C397.029 215.002 396.919 216.52 396.789 218.036C396.658 219.553 396.507 221.068 396.336 222.58C396.164 224.092 395.972 225.602 395.76 227.109C395.547 228.617 395.314 230.121 395.061 231.621C394.808 233.122 394.534 234.62 394.24 236.113C393.947 237.607 393.633 239.096 393.298 240.581C392.964 242.066 392.61 243.546 392.235 245.021C391.861 246.497 391.467 247.967 391.053 249.431C390.639 250.896 390.205 252.355 389.751 253.808C389.298 255.261 388.824 256.707 388.331 258.148C387.839 259.588 387.326 261.021 386.795 262.447C386.263 263.873 385.712 265.292 385.142 266.703C383.738 270.205 382.273 274.822 380.214 277.901C379.325 281.353 373.837 290.466 371.804 293.824C371.242 294.75 370.672 295.671 370.094 296.587C369.515 297.503 368.929 298.413 368.334 299.318C367.739 300.223 367.136 301.123 366.524 302.017C365.913 302.911 365.294 303.8 364.667 304.683C364.039 305.566 363.404 306.443 362.76 307.314C362.117 308.186 361.466 309.051 360.807 309.911C360.148 310.77 359.481 311.624 358.807 312.471C358.133 313.319 357.45 314.16 356.761 314.995C356.071 315.83 355.374 316.659 354.669 317.481C353.964 318.304 353.252 319.12 352.532 319.93C351.813 320.739 351.086 321.542 350.352 322.338C349.617 323.135 348.876 323.924 348.128 324.707C347.379 325.49 346.624 326.266 345.861 327.036C345.099 327.805 344.329 328.567 343.553 329.322C342.777 330.077 341.993 330.826 341.203 331.567C340.413 332.308 339.617 333.041 338.814 333.768C338.01 334.495 337.2 335.214 336.384 335.926C335.568 336.638 334.745 337.342 333.916 338.039C333.087 338.736 332.252 339.425 331.41 340.107C330.568 340.789 329.721 341.463 328.867 342.129C328.013 342.796 327.153 343.455 326.288 344.106C325.422 344.756 324.55 345.399 323.672 346.034C322.795 346.669 321.912 347.296 321.023 347.915C320.134 348.534 319.24 349.145 318.34 349.748C317.44 350.351 316.535 350.945 315.624 351.532C314.714 352.118 313.798 352.696 312.876 353.266C311.955 353.836 311.029 354.397 310.098 354.95C309.166 355.503 308.23 356.047 307.289 356.583C306.347 357.119 305.401 357.646 304.45 358.165C303.5 358.684 302.545 359.194 301.585 359.696C300.624 360.197 299.66 360.689 298.691 361.173C297.722 361.657 296.749 362.133 295.771 362.599C289.409 365.638 282.927 368.394 276.325 370.865C273.418 371.938 261.523 375.45 259.803 376.611C258.046 377.796 256.589 379.871 255.169 381.441C253.441 383.356 251.652 385.212 249.802 387.01C246.938 389.755 243.915 392.312 240.733 394.682C238.469 396.34 235.911 397.801 233.856 399.714C231.771 401.656 229.987 404.288 228.15 406.491C224.761 410.553 221.268 414.537 217.822 418.551L207.723 406.602C205.816 404.302 204.063 401.737 201.926 399.653C199.907 397.683 194.749 394.889 192.011 392.694C185.958 387.841 180.984 382.147 175.727 376.492C172.568 375.693 169.406 374.56 166.297 373.57C164.438 372.98 162.589 372.361 160.749 371.713C158.91 371.065 157.081 370.389 155.262 369.684C153.444 368.98 151.636 368.247 149.84 367.487C148.044 366.726 146.261 365.938 144.489 365.123C142.718 364.307 140.959 363.464 139.214 362.594C137.469 361.724 135.737 360.827 134.02 359.903C132.302 358.979 130.599 358.029 128.911 357.052C127.223 356.075 125.55 355.073 123.893 354.045C122.236 353.016 120.595 351.962 118.971 350.883C117.347 349.803 115.739 348.699 114.149 347.57C112.559 346.441 110.986 345.288 109.432 344.11C107.878 342.932 106.342 341.731 104.825 340.505C103.307 339.28 101.81 338.031 100.331 336.759C98.8523 335.487 97.3939 334.193 95.9556 332.876C94.517 331.559 93.0993 330.22 91.7025 328.859C90.3054 327.498 88.9298 326.116 87.5758 324.712C53.9732 290.036 37.2491 243.084 38.0259 195.147L46.4483 195.203C46.6297 193.407 46.8381 191.614 47.0734 189.824C47.3087 188.034 47.571 186.248 47.8602 184.466C48.1495 182.684 48.4655 180.907 48.8084 179.134C49.151 177.362 49.5203 175.595 49.9163 173.834C50.3123 172.073 50.7348 170.318 51.1839 168.569C51.6326 166.821 52.1077 165.079 52.609 163.345C53.1105 161.61 53.6379 159.884 54.1912 158.166C54.7447 156.448 55.3239 154.738 55.9288 153.037C56.5337 151.336 57.1641 149.644 57.8201 147.963C58.4761 146.281 59.1572 144.609 59.8634 142.948C60.5696 141.286 61.3007 139.636 62.0566 137.996C62.8128 136.357 63.5934 134.73 64.3984 133.114C65.2034 131.498 66.0327 129.895 66.8863 128.304C67.7395 126.713 68.6166 125.135 69.5176 123.571C70.4185 122.006 71.3428 120.456 72.2903 118.919C73.2381 117.383 74.2087 115.861 75.2022 114.354C77.4516 110.923 80.0335 107.698 82.4528 104.384C75.0783 88.8156 71.7827 72.0411 73.3547 54.8106C76.1087 61.8828 79.8607 67.8114 84.5102 73.7813C84.1921 69.9642 83.5816 66.1841 83.321 62.352C82.3383 47.8857 83.7808 34.8151 88.0531 21Z" fill="currentColor"/>
<path d="M121.522 299.492C121.555 299.597 121.597 299.698 121.621 299.806C121.828 300.746 122.15 303.065 121.725 303.872L121.341 303.668C120.725 302.945 120.195 302.213 119.682 301.414C120.262 300.748 120.908 300.127 121.522 299.492Z" fill="currentColor"/>
<path d="M79.4504 71.412C80.2717 72.4714 81.1263 73.5137 81.8339 74.6539C81.7815 75.5911 82.0038 76.4282 82.2103 77.3338C81.6683 76.5925 81.4762 75.4582 80.6234 75.0431C80.2032 75.5443 80.221 75.8321 80.1163 76.4673C79.7999 74.7898 79.6228 73.1101 79.4504 71.412Z" fill="#97A4AD"/>
<path d="M291.02 219.531C291.222 221.87 289.856 229.422 288.236 231.228C288.156 231.316 288.07 231.399 287.988 231.485C288.343 228.916 288.873 222.627 289.565 220.534C289.764 219.932 290.497 219.775 291.02 219.531Z" fill="#FDFDFD"/>
<path d="M178.212 161.523C179.277 161.58 179.973 162.005 180.73 162.742C181.294 163.291 181.665 164.084 181.609 164.882C181.549 165.753 180.906 166.189 180.279 166.677C180.03 166.696 179.781 166.714 179.532 166.712C178.719 166.705 177.912 166.251 177.381 165.646C176.886 165.081 176.686 164.365 176.758 163.621C176.855 162.595 177.472 162.137 178.212 161.523Z" fill="white"/>
<path d="M176.503 190.744C176.585 190.742 176.667 190.739 176.75 190.738C177.724 190.725 178.42 190.802 179.126 191.546C179.575 192.018 179.746 192.641 179.661 193.283C179.51 194.419 178.771 195.005 177.874 195.601C177.615 195.624 177.355 195.647 177.094 195.65C176.438 195.659 175.691 195.401 175.269 194.871C174.813 194.299 174.689 193.671 174.812 192.962C175.004 191.849 175.637 191.371 176.503 190.744Z" fill="white"/>
<path d="M147.164 189.889C147.468 189.875 147.775 189.862 148.08 189.876C148.792 189.91 149.487 190.288 149.947 190.832C150.386 191.349 150.558 192.014 150.475 192.686C150.336 193.812 149.732 194.295 148.89 194.959C148.666 194.978 148.442 195.003 148.217 195.004C147.538 195.007 146.882 194.664 146.421 194.175C145.868 193.589 145.669 192.805 145.755 192.015C145.867 190.98 146.376 190.505 147.164 189.889Z" fill="white"/>
<path d="M141.634 175.591C142.596 175.764 143.293 176.056 143.875 176.882C144.349 177.555 144.468 178.381 144.268 179.172C143.996 180.249 143.329 180.737 142.404 181.258C142.341 181.25 142.278 181.243 142.215 181.234C141.288 181.105 140.704 180.801 140.169 180.014C139.703 179.329 139.62 178.525 139.8 177.729C140.052 176.607 140.686 176.154 141.634 175.591Z" fill="white"/>
<path d="M161.977 154.779L162.27 154.765C163.507 154.715 165.098 154.828 165.999 155.829C166.368 156.24 166.574 156.669 166.53 157.233C166.461 158.132 165.868 158.706 165.279 159.316C164.964 159.438 164.572 159.61 164.237 159.645C163.691 159.701 163.126 159.451 162.685 159.143C161.945 158.626 161.494 157.867 161.335 156.983C161.167 156.045 161.442 155.506 161.977 154.779Z" fill="white"/>
<path d="M162.372 195.889C163.496 196.042 164.417 196.146 165.159 197.083C165.572 197.605 165.732 198.252 165.577 198.908C165.311 200.039 164.422 200.526 163.476 201.026C163.071 201.019 162.623 201.033 162.231 200.915C161.596 200.724 160.973 200.082 160.68 199.504C160.641 199.426 160.605 199.347 160.574 199.266C160.542 199.185 160.515 199.103 160.492 199.019C160.47 198.935 160.451 198.85 160.437 198.765C160.423 198.679 160.413 198.593 160.408 198.506C160.403 198.419 160.403 198.332 160.407 198.245C160.411 198.159 160.419 198.072 160.432 197.986C160.445 197.9 160.462 197.815 160.484 197.731C160.506 197.647 160.532 197.564 160.563 197.483C160.891 196.594 161.555 196.261 162.372 195.889Z" fill="white"/>
<path d="M146.739 160.903C147.131 160.886 147.535 160.902 147.921 160.975C148.588 161.1 149.189 161.51 149.512 162.115C149.785 162.625 149.771 163.251 149.632 163.799C149.325 165.015 148.541 165.647 147.524 166.291C147.214 166.291 146.904 166.291 146.594 166.269C145.898 166.22 145.28 165.922 144.876 165.324C144.536 164.821 144.499 164.203 144.622 163.625C144.901 162.32 145.667 161.612 146.739 160.903Z" fill="white"/>
<path d="M182.937 176.243C183.966 176.2 184.77 176.281 185.564 177C186.191 177.567 186.516 178.344 186.501 179.186C186.479 180.357 185.967 181.001 185.148 181.775C184.862 181.824 184.904 181.822 184.567 181.852C183.723 181.927 183.016 181.769 182.379 181.184C181.776 180.629 181.489 179.865 181.508 179.053C181.537 177.8 182.035 177.058 182.937 176.243Z" fill="white"/>
<path d="M144.482 259.666L144.742 259.852C147.6 261.921 150.164 265.014 153.611 266.122C154.028 267.544 154.66 268.969 155.177 270.363C150.73 267.81 145.854 265.22 142.48 261.266C143.756 261.479 145.633 263.61 146.634 264.511C147.019 264.283 147.381 264.084 147.713 263.781C147.97 263.546 147.896 263.456 147.914 263.129C147.335 262.231 146.357 261.885 145.573 261.202C145.022 260.722 144.531 260.42 144.482 259.666Z" fill="#B2BFC4"/>
<path d="M309.377 281.355C309.63 279.07 310.639 265.023 310.957 264.251C311.034 264.064 311.209 263.934 311.336 263.775C313.693 272.291 314.678 280.85 314.595 289.683C312.924 286.864 311.185 284.088 309.377 281.355Z" fill="white"/>
<path d="M296.565 156.308C299.903 156.031 303.243 158.48 306.497 159.033C308.264 161.793 309.449 164.64 310.388 167.776C308.166 167.408 305.198 166.135 302.974 167.078C301.469 163.074 299.219 159.628 296.565 156.308Z" fill="white"/>
<path d="M321.515 142.424C321.714 149.724 321.055 157.054 321.435 164.356C320.226 164.62 318.998 164.691 317.766 164.787C317.537 157.954 317.776 151.068 317.844 144.23L321.515 142.424Z" fill="white"/>
<path d="M283.32 147.812C287.656 147.837 294.012 147.914 297.857 149.932C299.309 150.695 300.565 151.846 301.705 153.01C303.492 154.866 305.09 156.874 306.497 159.033C303.243 158.481 299.903 156.031 296.565 156.308C292.518 152.4 288.443 150.018 283.32 147.812Z" fill="white"/>
<path d="M236.493 168.085C238.81 165.954 241.911 164.343 244.59 162.701C242.452 167.572 241.669 172.714 241.455 177.985C240.055 178.963 236.366 180.932 235.536 182.184C235.196 177.348 235.209 172.807 236.493 168.085Z" fill="white"/>
<path d="M138.267 148.938C141.072 149.399 143.941 149.647 146.767 149.979C141.769 152.955 141.3 154.294 137.456 158.26L137.222 158.5C135.226 158.939 132.817 160.503 130.978 161.427C129.834 161.614 128.783 161.712 127.623 161.693C130.048 156.534 133.699 152.315 138.267 148.938Z" fill="white"/>
<path d="M248.37 172.625C248.803 169.339 250.565 166.031 252.464 163.366C256.259 158.038 262.456 154.438 268.885 153.379C275.238 152.332 282.12 153.664 287.392 157.435C287.255 157.439 287.117 157.447 286.979 157.447C284.751 157.455 282.257 156.179 280.018 155.815C278.123 155.508 276.101 155.599 274.189 155.674C267.276 155.945 261.215 157.686 256.064 162.493C255.055 163.44 254.112 164.447 253.233 165.516C252.355 166.585 251.549 167.706 250.815 168.878C250.021 170.126 249.34 171.505 248.37 172.625Z" fill="currentColor"/>
<path d="M194.848 179.188C194.955 173.426 193.906 168.736 191.846 163.357C194.688 165.029 198.055 166.966 200.449 169.228C201.18 172.948 201.771 179.908 200.913 183.456L200.752 182.901C199.091 181.728 196.77 179.801 194.848 179.188Z" fill="white"/>
<path d="M261.848 90.1664C271.691 93.1021 281.429 97.2126 290.201 102.576C288.846 103.542 287.473 104.445 286.051 105.31C279.78 101.007 269.435 96.4931 262.075 95.0927L261.848 90.1664Z" fill="#FDFDFD"/>
<path d="M283.636 330.883C283.676 330.608 283.708 330.371 283.84 330.121C285.01 327.901 287.657 325.417 289.163 323.22C291.875 319.263 294.09 314.936 296.56 310.825C296.928 310.213 297.519 309.077 298.203 308.828L298.39 309.27C296.461 319.742 292.03 331.171 284.899 339.269C284.843 336.421 284.21 333.661 283.636 330.883Z" fill="white"/>
<path d="M277.952 282.11C276.094 286.274 274.111 290.483 271.981 294.515C270.08 294.914 268.053 296.14 266.255 296.907C262.382 298.557 258.41 300.222 254.443 301.625C256.431 299.42 258.475 297.257 260.401 294.999C261.96 293.171 263.537 290.801 265.393 289.306C268.395 286.886 274.399 284.12 277.952 282.11Z" fill="#97A4AD"/>
<path d="M263.86 353.619C265.029 352.945 266.127 351.808 267.116 350.891C271.288 347.024 274.557 342.571 277.847 337.956C279.301 335.916 280.716 333.714 282.37 331.836L282.648 332.073C281.997 334.798 281.313 337.494 280.267 340.101C277.235 347.653 271.689 355.072 266.078 360.93C265.626 358.467 265.079 355.834 263.86 353.619Z" fill="white"/>
<path d="M173.442 90.0949C173.398 91.8838 173.311 93.6706 173.182 95.4555C164.897 98.2099 157.429 101.488 149.972 106.066C148.522 105.113 147.13 104.128 145.765 103.059C154.307 97.4426 163.734 93.2504 173.442 90.0949Z" fill="#FDFDFD"/>
<path d="M307.765 281.451C310.554 295.286 308.702 305.139 301.883 317.555C301.33 314.31 300.135 311.515 298.956 308.463C299.331 306.522 300.853 304.419 301.694 302.601C302.625 300.538 303.443 298.43 304.147 296.279C305.038 293.579 305.651 290.811 306.224 288.029C306.639 286.014 306.867 283.276 307.765 281.451Z" fill="white"/>
<path d="M125.493 262.696C126.018 263.694 125.813 267.377 125.898 268.784C126.079 271.775 126.318 274.781 126.754 277.747C127.025 279.587 127.498 281.477 127.657 283.321C129.065 291.512 130.817 299.969 135.082 307.224C135.316 307.623 135.36 307.845 135.307 308.32C134.686 311.032 133.947 313.833 133.115 316.486C129.879 307.987 125.128 292.042 126.601 282.998C126.649 282.473 126.782 282.056 126.55 281.573C126.48 281.581 126.408 281.579 126.34 281.597C124.83 282.004 121.885 287.229 121.062 288.626C121.732 279.793 123.288 271.266 125.493 262.696Z" fill="white"/>
<path d="M301.149 265.352C299.775 269.659 298.357 273.952 296.895 278.231C291.561 282.201 286.613 286.439 280.968 290.007C279.88 290.695 278.673 291.607 277.473 292.059C279.627 287.636 281.657 283.156 283.562 278.62C289.488 274.213 295.508 270.16 301.149 265.352Z" fill="#97A4AD"/>
<path d="M157.893 281.28C160.607 282.933 163.314 284.616 166.095 286.154C168.707 287.597 172.211 288.875 174.408 290.86C175.727 292.053 176.78 293.69 177.863 295.101C179.738 297.545 181.614 299.985 183.723 302.234C177.93 301.234 171.979 299.267 166.094 298.961C162.811 293.378 160.259 287.298 157.893 281.28Z" fill="#788597"/>
<path d="M158.506 267.586C163.269 269.611 167.722 272.799 172.342 275.189C184.024 281.231 196.184 286.092 208.605 290.376C211.563 291.396 215.287 292.964 218.408 293.221C218.219 294.471 218.017 297.337 218.611 298.422C217.321 298.396 214.326 296.903 212.917 296.43C194.734 290.321 176.898 282.74 160.503 272.742C159.794 271.044 159.166 269.305 158.506 267.586Z" fill="#B2BFC4"/>
<path d="M149.972 106.066C157.429 101.488 164.897 98.2098 173.182 95.4554C172.94 103.345 172.621 111.227 172.613 119.121C164.992 114.952 157.23 110.844 149.972 106.066Z" fill="#788597"/>
<path d="M262.075 95.0927C269.435 96.4931 279.78 101.007 286.051 105.31C278.435 110.233 270.185 114.155 262.538 119.053L262.075 95.0927Z" fill="#B2BFC4"/>
<path d="M212.853 72.915C234.833 71.4235 257.659 78.3978 276.533 89.3187C274.717 89.1747 270.492 86.8964 268.514 86.1411C266.368 85.3218 264.172 84.6001 261.984 83.9019C259.385 83.0565 256.766 82.2806 254.125 81.5741C251.485 80.8676 248.828 80.2315 246.154 79.6658C243.48 79.1 240.793 78.6056 238.093 78.1823C235.392 77.7591 232.683 77.4076 229.964 77.1277C212.178 75.3019 195.036 77.8502 177.827 82.2703C175.651 82.8289 173.42 83.3607 171.299 84.1062C168.823 84.977 165.979 86.4336 163.371 86.7508C164.44 85.8924 168.649 84.0824 170.189 83.3633C183.893 76.968 197.746 73.6593 212.853 72.915Z" fill="#97A4AD"/>
<path d="M307.484 121.581C325.175 114.658 337.618 105.174 348.477 89.4779C350.364 86.7504 354.114 78.8985 355.599 77.3359C355.691 77.2389 355.787 77.146 355.881 77.0511C354.538 89.2335 348.486 103.64 338.788 111.498C331.968 117.025 316.498 121.722 307.484 121.581Z" fill="#788597"/>
<path d="M161.847 167.381C164.008 167.192 166.116 167.438 168.054 168.479C170.501 169.792 172.28 172.156 173.046 174.808C173.808 177.445 173.294 180.236 171.886 182.568C170.299 185.198 167.984 186.599 165.057 187.279C162.575 187.492 160.178 187.28 157.993 185.96C157.85 185.874 157.709 185.784 157.57 185.69C157.431 185.596 157.295 185.498 157.161 185.397C157.027 185.296 156.896 185.192 156.768 185.085C156.639 184.977 156.513 184.866 156.391 184.752C156.268 184.638 156.148 184.521 156.031 184.4C155.915 184.28 155.801 184.157 155.691 184.031C155.581 183.905 155.474 183.776 155.37 183.644C155.266 183.513 155.166 183.379 155.069 183.242C154.972 183.105 154.879 182.966 154.789 182.824C154.7 182.683 154.614 182.539 154.531 182.393C154.449 182.247 154.371 182.099 154.296 181.949C154.221 181.799 154.151 181.647 154.084 181.493C154.017 181.34 153.954 181.184 153.895 181.027C153.836 180.871 153.782 180.712 153.731 180.553C153.68 180.393 153.634 180.232 153.591 180.07C153.549 179.908 153.511 179.745 153.477 179.58C152.914 176.943 153.331 174.042 154.819 171.771C156.479 169.235 158.959 167.973 161.847 167.381Z" fill="currentColor"/>
<path d="M136.55 264.771C142.104 269.238 147.536 274.169 153.367 278.252C155.019 285.1 158.337 292.11 161.598 298.329C156.6 297.49 151.679 295.975 146.738 294.865C145.399 292.455 144.395 289.77 143.361 287.219C140.409 279.936 137.832 272.55 136.55 264.771Z" fill="#788597"/>
<path d="M127.623 161.693C128.784 161.712 129.834 161.614 130.978 161.427C130.729 161.93 130.492 162.439 130.268 162.953C130.044 163.467 129.832 163.987 129.633 164.512C129.434 165.036 129.248 165.565 129.075 166.099C128.902 166.633 128.742 167.171 128.595 167.713C128.448 168.254 128.315 168.799 128.194 169.347C128.074 169.895 127.967 170.446 127.873 170.999C127.78 171.553 127.7 172.108 127.633 172.665C127.567 173.222 127.514 173.781 127.475 174.341C127.436 174.901 127.41 175.461 127.398 176.022C127.386 176.583 127.388 177.144 127.404 177.705C127.419 178.266 127.448 178.826 127.491 179.386C127.533 179.945 127.59 180.503 127.66 181.06C127.73 181.617 127.813 182.172 127.91 182.724C128.007 183.277 128.118 183.827 128.241 184.375C128.365 184.922 128.502 185.466 128.653 186.007C128.803 186.547 128.966 187.084 129.143 187.617C132.277 197.011 139.27 205.581 148.163 210.018C157.67 214.761 168.966 214.413 178.845 211.041C180.469 210.486 182.179 209.943 183.739 209.236C185.294 208.531 186.93 207.298 188.597 206.982C185.613 210.321 180.479 213.253 176.309 214.817C176.023 214.923 175.736 215.026 175.447 215.125C175.158 215.224 174.869 215.32 174.578 215.412C174.286 215.504 173.994 215.593 173.701 215.678C173.408 215.763 173.114 215.844 172.819 215.922C172.523 216 172.227 216.074 171.93 216.145C171.634 216.216 171.336 216.283 171.037 216.346C170.739 216.409 170.439 216.469 170.139 216.525C169.839 216.581 169.538 216.634 169.237 216.683C168.936 216.731 168.634 216.777 168.332 216.818C168.029 216.859 167.726 216.897 167.423 216.931C167.12 216.965 166.816 216.996 166.512 217.022C166.208 217.049 165.903 217.072 165.599 217.091C165.294 217.111 164.989 217.126 164.684 217.138C164.379 217.15 164.074 217.158 163.769 217.162C163.464 217.167 163.158 217.167 162.853 217.164C162.548 217.161 162.243 217.155 161.938 217.144C161.633 217.134 161.328 217.119 161.023 217.102C160.718 217.084 160.414 217.062 160.11 217.037C159.805 217.012 159.502 216.983 159.198 216.95C158.895 216.917 158.591 216.881 158.289 216.841C157.986 216.801 157.684 216.757 157.383 216.709C157.081 216.662 156.78 216.611 156.48 216.556C156.18 216.501 155.88 216.443 155.581 216.381C155.282 216.319 154.984 216.253 154.687 216.184C154.39 216.115 154.093 216.042 153.798 215.965C153.502 215.889 153.208 215.809 152.914 215.725C152.621 215.641 152.328 215.554 152.037 215.463C151.745 215.372 151.455 215.278 151.166 215.18C150.877 215.082 150.589 214.981 150.302 214.876C150.016 214.771 149.73 214.663 149.446 214.551C149.162 214.439 148.88 214.324 148.599 214.205C148.317 214.086 148.037 213.964 147.759 213.838C138.066 209.421 129.859 200.858 126.132 190.857C122.513 181.149 123.4 171.018 127.623 161.693Z" fill="white"/>
<path d="M142.48 261.266C136.076 255.78 127.883 245.005 123.008 237.926C120.603 234.434 113.686 224.127 113.018 220.405C112.5 217.517 113.254 212.553 113.478 209.478C113.915 204.039 114.265 198.594 114.529 193.144L116.199 155.628C116.382 151.961 116.174 145.67 116.785 142.352L117.058 142.24C117.37 142.694 117.386 143.103 117.42 143.637C117.602 146.512 117.315 149.571 117.247 152.46C117.134 157.383 117.093 162.307 117.123 167.231C117.088 171.325 116.851 175.416 116.828 179.51C116.852 188.495 117.101 197.474 117.576 206.447C117.827 210.873 117.889 215.806 119.012 220.112C119.773 223.029 121.308 225.803 122.673 228.478C128.46 239.82 135.606 250.504 144.482 259.666C144.531 260.42 145.022 260.722 145.573 261.202C146.357 261.885 147.335 262.231 147.914 263.129C147.896 263.456 147.97 263.546 147.713 263.781C147.381 264.084 147.019 264.283 146.634 264.511C145.633 263.61 143.756 261.48 142.48 261.266Z" fill="#FDFDFD"/>
<path d="M57.8398 193.522C58.1055 188.965 58.9039 184.437 59.7669 179.96C63.6071 160.043 70.7431 140.423 81.6231 123.241C83.4076 120.423 85.2074 117.528 87.2839 114.915C88.178 116.477 89.0837 118.004 90.1034 119.487C89.362 120.552 88.6339 121.625 87.9192 122.708C87.2044 123.791 86.5033 124.882 85.8158 125.982C85.128 127.082 84.4542 128.19 83.7942 129.307C83.1342 130.424 82.4883 131.549 81.8565 132.682C81.2243 133.814 80.6064 134.955 80.0026 136.103C79.3991 137.252 78.81 138.407 78.2352 139.57C77.6601 140.733 77.0996 141.903 76.5538 143.08C76.0082 144.256 75.4773 145.44 74.9609 146.63C74.4446 147.82 73.943 149.016 73.4562 150.219C72.9697 151.421 72.4982 152.63 72.0418 153.844C71.5853 155.058 71.144 156.278 70.7176 157.503C70.2915 158.728 69.8807 159.959 69.485 161.194C69.0896 162.43 68.7095 163.67 68.3447 164.915C67.98 166.16 67.6308 167.409 67.2973 168.663C66.9635 169.916 66.6454 171.174 66.3431 172.435C66.0408 173.697 65.7543 174.962 65.4835 176.23C64.2623 181.904 63.6245 187.67 62.6278 193.381L57.8398 193.522Z" fill="white"/>
<path d="M130.978 161.427C132.817 160.503 135.226 158.939 137.222 158.5C132.188 165.942 129.709 174.285 131.472 183.247C133.162 191.837 138.166 199.127 145.426 203.977C152.5 208.703 161.605 210.945 170.036 209.273C177.59 207.775 185.2 202.55 189.453 196.152C192.726 191.228 194.542 185.073 194.848 179.187C196.77 179.801 199.091 181.728 200.752 182.901L200.913 183.455C199.064 192.33 195.807 201.007 188.597 206.982C186.93 207.298 185.294 208.531 183.739 209.236C182.179 209.942 180.469 210.486 178.845 211.041C168.966 214.413 157.67 214.761 148.163 210.018C139.27 205.581 132.277 197.011 129.143 187.617C128.966 187.084 128.803 186.547 128.653 186.007C128.502 185.466 128.365 184.922 128.241 184.375C128.118 183.827 128.007 183.277 127.91 182.724C127.813 182.172 127.73 181.617 127.66 181.06C127.59 180.503 127.534 179.945 127.491 179.386C127.448 178.826 127.419 178.266 127.404 177.705C127.388 177.144 127.386 176.583 127.398 176.022C127.41 175.461 127.436 174.901 127.475 174.341C127.514 173.781 127.567 173.222 127.633 172.665C127.7 172.108 127.78 171.552 127.873 170.999C127.967 170.446 128.074 169.895 128.194 169.347C128.315 168.799 128.448 168.254 128.595 167.713C128.742 167.171 128.902 166.633 129.075 166.099C129.248 165.565 129.434 165.036 129.633 164.512C129.832 163.987 130.044 163.467 130.268 162.953C130.492 162.438 130.729 161.93 130.978 161.427Z" fill="white"/>
<path d="M317.766 164.787C318.998 164.691 320.226 164.62 321.435 164.356C321.567 174.043 321.886 183.724 322.393 193.399C322.68 199.038 323.004 204.675 323.365 210.31C323.558 213.379 324.389 218.873 323.726 221.746C323.253 223.794 321.843 225.893 320.837 227.742C315.504 237.535 309.27 246.652 301.508 254.688C295.64 260.763 289.171 265.793 282.296 270.668C282.531 268.456 282.753 266.253 283.162 264.063C287.511 262.137 295.777 253.483 298.997 249.604C303.835 243.777 316.495 225.908 317.766 219.027C318.25 216.405 318.066 213.576 318.063 210.917C318.067 207.25 318.048 203.584 318.004 199.918C317.894 193.5 318.185 186.824 317.587 180.443C317.899 175.227 317.801 170.009 317.766 164.787Z" fill="#FDFDFD"/>
<path d="M177.92 88.869C204.865 81.0657 230.506 81.8513 257.476 88.9167C258.392 99.7269 258.466 110.861 258.294 121.704C256.668 122.86 255.03 124.001 253.381 125.124C253.016 121.741 253.355 117.973 253.353 114.538C253.415 107.928 253.18 101.329 252.648 94.7397C250.661 94.0656 248.681 93.3731 246.706 92.6623C243.566 91.3083 232.024 89.274 228.65 89.4157C214.152 87.8412 199.707 89.1718 185.423 91.9883C183.84 92.3004 180.326 92.7019 179.004 93.4781C178.907 93.5356 178.829 93.6203 178.74 93.691C178.786 94.1841 178.856 94.6477 178.961 95.1319C178.36 97.8334 177.991 107.534 177.114 108.785C177.302 102.215 177.223 95.3967 177.92 88.869Z" fill="#FDFDFD"/>
<path d="M90.1034 119.487C92.2153 122.247 94.3161 125.059 96.7656 127.532C85.9001 144.68 78.2658 162.232 74.6067 182.299C73.9408 185.949 73.2565 189.715 72.9649 193.413C69.5271 193.431 66.0617 193.539 62.6277 193.381C63.6245 187.67 64.2623 181.904 65.4835 176.23C65.7543 174.962 66.0408 173.697 66.3431 172.435C66.6454 171.174 66.9635 169.916 67.2973 168.663C67.6308 167.409 67.98 166.16 68.3447 164.915C68.7095 163.67 69.0895 162.43 69.485 161.194C69.8806 159.959 70.2915 158.728 70.7176 157.503C71.1439 156.278 71.5853 155.058 72.0418 153.844C72.4982 152.63 72.9697 151.421 73.4562 150.219C73.943 149.016 74.4446 147.82 74.9609 146.63C75.4773 145.44 76.0082 144.256 76.5538 143.08C77.0996 141.903 77.6601 140.733 78.2352 139.57C78.81 138.407 79.3991 137.252 80.0026 136.103C80.6064 134.955 81.2243 133.814 81.8565 132.682C82.4883 131.549 83.1342 130.424 83.7942 129.307C84.4541 128.19 85.128 127.082 85.8158 125.982C86.5033 124.882 87.2044 123.791 87.9192 122.708C88.6339 121.625 89.362 120.552 90.1034 119.487Z" fill="white"/>
<path d="M302.974 167.078C305.198 166.135 308.166 167.408 310.388 167.776C312.851 178.327 311.36 189.062 305.603 198.349C305.44 198.61 305.273 198.869 305.104 199.125C304.934 199.382 304.762 199.637 304.586 199.89C304.411 200.142 304.232 200.392 304.05 200.641C303.868 200.889 303.684 201.135 303.496 201.379C303.308 201.622 303.118 201.864 302.924 202.103C302.731 202.342 302.534 202.579 302.334 202.813C302.135 203.047 301.933 203.279 301.728 203.508C301.523 203.737 301.315 203.964 301.104 204.189C300.894 204.413 300.681 204.635 300.465 204.854C300.249 205.073 300.03 205.289 299.809 205.503C299.588 205.717 299.364 205.928 299.138 206.136C298.911 206.344 298.682 206.55 298.451 206.753C298.22 206.955 297.986 207.155 297.75 207.352C297.513 207.549 297.275 207.744 297.034 207.935C296.793 208.126 296.55 208.314 296.304 208.499C296.059 208.685 295.811 208.867 295.561 209.046C295.311 209.226 295.058 209.402 294.804 209.575C294.55 209.748 294.293 209.918 294.035 210.085C293.777 210.252 293.516 210.416 293.254 210.576C292.991 210.737 292.727 210.894 292.461 211.048C292.195 211.202 291.927 211.353 291.657 211.5C291.387 211.648 291.115 211.792 290.841 211.933C290.568 212.074 290.293 212.212 290.016 212.346C289.739 212.48 289.461 212.611 289.181 212.739C288.901 212.866 288.619 212.99 288.336 213.111C288.053 213.231 287.769 213.348 287.483 213.462C287.197 213.576 286.91 213.686 286.621 213.792C286.333 213.899 286.043 214.002 285.752 214.102C285.461 214.202 285.169 214.297 284.875 214.39C284.582 214.482 284.288 214.571 283.992 214.657C283.696 214.742 283.4 214.823 283.102 214.902C282.805 214.98 282.506 215.054 282.207 215.125C281.904 215.192 281.601 215.255 281.297 215.314C280.993 215.373 280.688 215.429 280.382 215.481C280.077 215.533 279.771 215.581 279.464 215.625C279.157 215.669 278.85 215.71 278.542 215.747C278.235 215.784 277.926 215.817 277.618 215.846C277.309 215.875 277 215.901 276.691 215.923C276.382 215.944 276.073 215.962 275.764 215.976C275.454 215.99 275.144 216.001 274.835 216.008C274.525 216.014 274.215 216.017 273.905 216.016C273.595 216.015 273.285 216.011 272.976 216.002C272.666 215.994 272.356 215.981 272.047 215.965C271.737 215.949 271.428 215.929 271.119 215.906C270.81 215.882 270.501 215.855 270.193 215.823C269.885 215.792 269.577 215.757 269.27 215.719C268.962 215.68 268.655 215.638 268.349 215.591C268.042 215.545 267.736 215.495 267.431 215.441C267.126 215.388 266.821 215.33 266.518 215.269C266.214 215.208 265.911 215.143 265.609 215.075C265.306 215.006 265.005 214.934 264.705 214.858C264.404 214.782 264.105 214.703 263.806 214.62C263.508 214.537 263.21 214.45 262.914 214.359C262.618 214.269 262.322 214.174 262.028 214.077C261.734 213.979 261.441 213.878 261.149 213.773C260.858 213.668 260.568 213.56 260.279 213.448C259.99 213.336 259.702 213.221 259.416 213.102C259.13 212.983 258.845 212.86 258.562 212.734C258.279 212.609 257.997 212.479 257.717 212.346C257.437 212.214 257.159 212.077 256.882 211.938C256.606 211.798 256.331 211.655 256.058 211.509C255.785 211.363 255.513 211.213 255.243 211.06C254.974 210.907 254.707 210.751 254.441 210.591C254.175 210.432 253.912 210.269 253.65 210.103C244.249 204.175 238.223 194.701 235.871 183.938C235.745 183.356 235.634 182.772 235.536 182.184C236.366 180.932 240.055 178.963 241.455 177.985C241.683 181.05 242.067 184.06 242.984 187.004C243.132 187.495 243.292 187.982 243.465 188.465C243.637 188.948 243.821 189.427 244.017 189.901C244.213 190.375 244.421 190.844 244.64 191.308C244.859 191.771 245.089 192.229 245.331 192.682C245.573 193.134 245.825 193.58 246.089 194.02C246.353 194.46 246.627 194.894 246.912 195.32C247.197 195.746 247.493 196.165 247.798 196.577C248.104 196.989 248.419 197.393 248.745 197.789C249.07 198.186 249.406 198.574 249.75 198.953C250.095 199.333 250.449 199.704 250.812 200.067C251.175 200.429 251.547 200.782 251.927 201.126C252.308 201.47 252.696 201.805 253.093 202.129C253.49 202.454 253.895 202.769 254.307 203.074C254.72 203.379 255.139 203.674 255.566 203.958C255.993 204.242 256.427 204.516 256.867 204.779C257.308 205.041 257.755 205.293 258.207 205.534C265.632 209.425 275.118 210.403 283.133 207.863C290.723 205.457 297.614 199.779 301.242 192.674C305.471 184.393 305.792 175.822 302.974 167.078Z" fill="white"/>
<path d="M92.8309 112.529C95.1319 113.922 97.3472 115.424 99.6835 116.766L99.6115 117.096C101.061 118.751 103.099 120.059 104.891 121.332C119.752 131.889 138.348 133.328 155.681 136.955C159.319 137.69 162.928 138.548 166.508 139.529C170.088 140.51 173.63 141.611 177.135 142.833C183.45 145.027 189.264 147.6 194.802 151.401C196.759 152.745 198.535 154.565 200.562 155.752C202.622 158.024 204.101 160.52 205.953 162.923L206.153 162.814C207.368 164.447 208.162 166.998 208.993 168.876C196.596 155.758 177.355 147.081 159.542 145.197C149.614 144.147 139.671 144.013 130.043 141.077C115.333 136.591 100.166 126.345 92.8309 112.529Z" fill="#788597"/>
<path d="M218.472 307.284C225.239 304.753 232.138 302.608 238.919 300.123C245.161 297.806 251.311 295.266 257.368 292.503C254.085 296.42 250.709 300.91 246.876 304.285C239.35 312.124 228.206 320.362 218.41 325.051C205.803 318.186 189.718 305.487 181.537 293.594C193.57 299.027 205.98 303.065 218.472 307.284Z" fill="#97A4AD"/>
<path d="M218.35 313.836C224.107 312.295 229.793 310.622 235.367 308.503C239.078 307.092 242.782 305.224 246.583 304.116L246.574 304.381L246.876 304.285C239.35 312.124 228.206 320.362 218.41 325.051C218.287 321.323 218.366 317.567 218.35 313.836Z" fill="#FDFDFD"/>
<path d="M222.892 54.7048C224.483 54.7599 226.072 54.8398 227.66 54.9446C229.248 55.049 230.834 55.1783 232.418 55.3324C234.002 55.4863 235.584 55.6648 237.162 55.8681C238.741 56.0716 240.316 56.2995 241.887 56.5519C243.459 56.8042 245.026 57.081 246.589 57.3821C248.152 57.6833 249.709 58.0088 251.262 58.3585C252.814 58.7085 254.361 59.0824 255.902 59.4804C257.443 59.8784 258.978 60.3002 260.506 60.7458C262.033 61.1915 263.554 61.661 265.067 62.1543C266.581 62.6474 268.086 63.164 269.583 63.7041C271.08 64.244 272.568 64.8072 274.048 65.3936C275.528 65.9801 276.998 66.5895 278.458 67.2219C279.919 67.8541 281.369 68.5089 282.809 69.1865C284.25 69.8638 285.679 70.5635 287.097 71.2856C288.516 72.0074 289.923 72.7513 291.318 73.5171C292.713 74.283 294.096 75.0704 295.467 75.8794C300.384 78.7372 305.868 81.9327 309.979 85.9044C307.839 87.9362 305.678 89.946 303.496 91.9339C278.24 74.2077 253.584 65.5346 222.857 63.6803L222.892 54.7048Z" fill="white"/>
<path d="M324.48 121.455C330.873 120.276 336.129 118.518 342.014 115.809C332.699 130.386 320.793 138.408 303.954 142.081C295.226 143.986 286.497 143.744 277.68 144.634C259.196 146.5 239.21 155.565 226.416 169.178C227.342 166.607 228.504 163.18 230.242 161.062C231.17 160.847 234.287 156.438 235.325 155.422C237.36 154.026 239.201 152.224 241.203 150.75C245.441 147.631 250.256 145.09 255.079 142.99C262.669 139.684 270.904 137.589 279.093 136.468C292.42 134.643 302.79 134.883 315.686 129.964C321.828 127.622 327.158 124.216 332.686 120.735C330.489 121.262 326.62 122.555 324.48 121.455Z" fill="#788597"/>
<path d="M254.443 301.625C258.41 300.222 262.382 298.557 266.255 296.907C268.053 296.14 270.08 294.914 271.981 294.515C271.354 295.721 270.708 296.918 270.044 298.105C269.381 299.292 268.7 300.469 268.001 301.635C267.302 302.801 266.585 303.956 265.851 305.101C265.117 306.246 264.366 307.379 263.597 308.501C262.829 309.623 262.043 310.733 261.241 311.831C260.439 312.929 259.621 314.014 258.786 315.088C257.951 316.161 257.1 317.221 256.233 318.269C255.366 319.316 254.483 320.351 253.585 321.371C252.686 322.392 251.773 323.399 250.843 324.392C249.915 325.385 248.971 326.364 248.012 327.328C247.053 328.292 246.081 329.242 245.093 330.177C244.106 331.112 243.105 332.032 242.089 332.937C241.074 333.841 240.046 334.73 239.003 335.604C237.961 336.477 236.906 337.335 235.838 338.176C234.77 339.018 233.689 339.843 232.596 340.651C231.503 341.46 230.398 342.253 229.281 343.028C225.865 345.435 222.239 348.167 218.44 349.944C218.118 348.711 218.015 329.96 218.403 328.813C220.684 327.868 222.929 326.445 225.053 325.188C232.977 320.498 240.056 315.257 246.83 309.016C249.432 306.619 251.783 303.961 254.443 301.625Z" fill="#FDFDFD"/>
<path d="M166.094 298.961C171.979 299.267 177.93 301.234 183.723 302.234C185.788 304.46 187.927 306.612 190.139 308.691C192.352 310.77 194.633 312.77 196.983 314.693C199.333 316.615 201.746 318.455 204.222 320.212C206.698 321.969 209.231 323.638 211.822 325.221C213.843 326.456 216.176 328.026 218.403 328.813C218.015 329.96 218.118 348.711 218.44 349.944C215.14 348.758 211.725 345.94 208.848 343.968C191.959 332.389 175.792 317.232 166.094 298.961Z" fill="#97A4AD"/>
<path d="M341.223 52.4252C341.973 54.044 339.297 61.5343 338.634 63.3401C329.742 87.576 313.241 106.371 291.397 119.828C286.498 122.846 281.392 125.449 276.247 128.014C266.352 132.946 255.936 137.132 247.031 143.816C243.465 146.493 240.226 149.589 237.06 152.72C236.181 153.589 235.415 154.092 235.325 155.422C234.287 156.438 231.17 160.847 230.242 161.062C238.324 143.477 253.268 131.43 269.528 121.707C278.661 116.245 288.259 111.143 296.82 104.795C315.881 90.6633 330.098 73.2646 341.223 52.4252Z" fill="#FDFDFD"/>
<path d="M117.123 167.231C118.272 180.532 117.313 189.752 124.867 201.811C125.467 202.785 126.103 203.735 126.775 204.66C127.448 205.585 128.155 206.483 128.897 207.353C129.639 208.224 130.413 209.065 131.219 209.876C132.026 210.687 132.863 211.465 133.729 212.212C137.43 215.338 141.603 217.687 145.986 219.709C144.7 235.625 148.608 251.175 153.611 266.122C150.164 265.014 147.6 261.921 144.742 259.852L144.482 259.666C135.606 250.504 128.459 239.82 122.673 228.478C121.308 225.803 119.773 223.029 119.012 220.112C117.889 215.805 117.827 210.873 117.576 206.447C117.101 197.474 116.852 188.495 116.828 179.51C116.851 175.415 117.088 171.325 117.123 167.231Z" fill="#788597"/>
<path d="M291.02 219.532C293.489 218.208 296.048 216.761 298.305 215.103C309.887 206.597 315.509 194.367 317.587 180.443C318.185 186.824 317.894 193.5 318.004 199.918C318.048 203.584 318.068 207.25 318.063 210.917C318.066 213.576 318.25 216.405 317.766 219.027C316.495 225.908 303.835 243.777 298.997 249.604C295.777 253.483 287.511 262.137 283.162 264.063C284.118 256.932 285.213 249.805 286.256 242.686C286.79 239.039 287.07 235.044 287.988 231.485C288.07 231.399 288.156 231.316 288.236 231.228C289.856 229.422 291.222 221.87 291.02 219.532Z" fill="white"/>
<path d="M49.0674 204.803L106.048 204.801C105.96 206.472 105.822 208.14 105.633 209.803C88.4965 209.287 71.2638 209.621 54.1185 209.684C54.1934 211.028 54.285 212.372 54.3931 213.714C54.5015 215.057 54.6267 216.398 54.7687 217.737C54.9106 219.076 55.0691 220.413 55.2443 221.749C55.4197 223.084 55.6117 224.417 55.8203 225.747C56.0287 227.078 56.2538 228.406 56.4956 229.731C56.7375 231.055 56.9958 232.377 57.2705 233.695C57.545 235.014 57.8361 236.329 58.1438 237.64C58.4515 238.951 58.7754 240.258 59.1155 241.561C59.4558 242.864 59.8123 244.163 60.185 245.457C60.5577 246.751 60.9465 248.041 61.3512 249.325C61.756 250.61 62.1768 251.889 62.6137 253.163C63.0505 254.437 63.5031 255.705 63.9715 256.968C64.4401 258.23 64.9244 259.487 65.4243 260.738C65.9241 261.988 66.4395 263.232 66.9703 264.47C67.5014 265.708 68.0478 266.939 68.6095 268.162C69.1713 269.386 69.7481 270.603 70.3399 271.813C70.932 273.023 71.5392 274.225 72.1614 275.419C72.7836 276.614 73.4206 277.8 74.0723 278.979C74.724 280.157 75.3904 281.327 76.0713 282.49C76.7523 283.651 77.4476 284.805 78.1572 285.949C78.8672 287.094 79.5911 288.229 80.3292 289.356C81.0675 290.482 81.8195 291.599 82.5854 292.707C83.3515 293.815 84.1312 294.913 84.9246 296.001C85.7183 297.089 86.5253 298.167 87.3456 299.236C88.1659 300.303 88.9995 301.361 89.8462 302.408C90.693 303.455 91.5527 304.492 92.4256 305.518C93.2982 306.544 94.1835 307.558 95.0816 308.562C95.9797 309.566 96.8902 310.558 97.813 311.539C98.7358 312.52 99.6707 313.489 100.618 314.447C101.565 315.404 102.523 316.35 103.494 317.283C104.465 318.217 105.447 319.138 106.441 320.047C107.434 320.957 108.439 321.853 109.455 322.737C111.917 324.883 114.433 326.964 117.003 328.979C119.574 330.994 122.196 332.94 124.868 334.818C127.541 336.695 130.261 338.501 133.028 340.236C135.795 341.971 138.606 343.633 141.46 345.22C143.444 346.348 146.134 348.165 148.33 348.686C149.361 350.196 151.536 350.105 152.815 351.327C154.821 353.247 156.4 355.952 157.987 358.22C138.615 350.784 117.089 336.463 102.016 322.254C101.011 321.312 100.018 320.358 99.0363 319.391C98.0544 318.425 97.0848 317.447 96.1273 316.456C95.1699 315.466 94.2247 314.464 93.2916 313.45C92.3589 312.437 91.4388 311.412 90.5313 310.376C89.6235 309.339 88.7288 308.292 87.8472 307.234C86.9652 306.175 86.0966 305.106 85.2414 304.026C84.3859 302.947 83.5438 301.857 82.7152 300.756C81.8867 299.656 81.0719 298.545 80.2708 297.425C79.4695 296.304 78.6822 295.174 77.909 294.034C77.1358 292.894 76.3766 291.745 75.6315 290.586C74.8867 289.427 74.1562 288.26 73.44 287.083C72.7236 285.906 72.0219 284.721 71.335 283.527C70.648 282.333 69.9759 281.131 69.3184 279.92C68.661 278.709 68.0187 277.491 67.3914 276.265C66.764 275.038 66.1519 273.805 65.555 272.563C64.958 271.321 64.3766 270.073 63.8105 268.817C63.2443 267.561 62.6937 266.299 62.1589 265.029C61.6239 263.76 61.1046 262.484 60.601 261.202C60.0974 259.92 59.6098 258.632 59.138 257.337C58.666 256.043 58.2101 254.743 57.7704 253.438C57.3307 252.133 56.9071 250.822 56.4995 249.506C56.0921 248.19 55.701 246.869 55.326 245.544C54.951 244.218 54.5924 242.889 54.2501 241.554C53.908 240.22 53.5824 238.881 53.2733 237.539C52.9642 236.197 52.6717 234.851 52.3958 233.501C52.1196 232.151 51.8601 230.799 51.6175 229.443C51.375 228.087 51.1492 226.728 50.94 225.366C50.7308 224.005 50.5385 222.641 50.3631 221.275C50.1874 219.908 50.0287 218.54 49.8871 217.17C49.7451 215.8 49.6201 214.428 49.512 213.055C49.4041 211.682 49.3131 210.307 49.239 208.932C49.1649 207.556 49.1078 206.18 49.0674 204.803Z" fill="white"/>
<path d="M92.0543 45.7655C103.412 68.3251 114.579 84.9795 134.159 101.301C136.984 103.629 139.885 105.857 142.863 107.986C145.841 110.115 148.888 112.14 152.004 114.061C170.582 125.402 188.003 132.861 200.332 151.903C202.536 155.307 204.706 159.021 206.153 162.814L205.953 162.923C204.101 160.52 202.622 158.024 200.562 155.752C199.93 154.116 198.279 152.659 197.085 151.39C185.815 139.411 170.134 134.17 155.595 127.381C150.793 125.123 146.138 122.592 141.633 119.788C130.217 112.784 120.201 104.269 111.884 93.7379C102.739 82.1592 97.9195 70.018 93.9929 55.9613C93.1328 52.8833 91.6784 48.9448 92.0543 45.7655Z" fill="#FDFDFD"/>
<path d="M146.738 294.865C151.679 295.975 156.6 297.49 161.598 298.329C162.009 299.061 162.426 299.789 162.85 300.513C163.274 301.237 163.704 301.958 164.141 302.675C164.577 303.391 165.02 304.104 165.47 304.813C165.919 305.522 166.375 306.226 166.836 306.927C167.298 307.628 167.766 308.325 168.24 309.017C168.714 309.709 169.194 310.398 169.68 311.082C170.166 311.766 170.659 312.446 171.157 313.121C171.655 313.796 172.16 314.467 172.67 315.133C173.18 315.8 173.696 316.461 174.218 317.119C174.74 317.776 175.267 318.428 175.8 319.076C176.334 319.724 176.873 320.367 177.418 321.006C177.963 321.644 178.513 322.278 179.069 322.906C179.625 323.535 180.186 324.159 180.754 324.777C181.32 325.396 181.893 326.01 182.471 326.618C183.049 327.227 183.632 327.83 184.22 328.428C184.809 329.026 185.403 329.62 186.002 330.207C186.601 330.795 187.205 331.377 187.814 331.954C188.424 332.531 189.038 333.103 189.657 333.669C190.277 334.235 190.901 334.796 191.53 335.351C192.16 335.907 192.794 336.456 193.433 337C194.073 337.544 194.716 338.082 195.365 338.615C196.014 339.147 196.667 339.674 197.325 340.195C197.983 340.716 198.645 341.231 199.312 341.74C199.979 342.249 200.651 342.753 201.327 343.25C202.003 343.747 202.683 344.239 203.368 344.724C204.052 345.209 204.741 345.688 205.434 346.161C206.128 346.635 206.825 347.102 207.526 347.562C208.228 348.023 208.933 348.478 209.642 348.926C210.352 349.374 211.065 349.816 211.782 350.252C212.5 350.688 213.221 351.117 213.946 351.54C214.67 351.963 215.399 352.379 216.131 352.79C216.863 353.199 217.599 353.603 218.339 354C218.47 358.537 218.359 363.093 218.337 367.632C218.327 369.738 218.131 372.105 218.462 374.182C218.383 374.167 218.3 374.165 218.224 374.137C216.53 373.503 209.442 368.048 207.529 366.66C182.852 348.751 159.483 322.748 146.738 294.865Z" fill="#97A4AD"/>
<path d="M178.961 95.1319C180.01 95.2724 181.825 97.3604 182.673 98.1213C188.811 103.633 194.465 109.063 199.493 115.658C200.43 116.895 201.336 118.154 202.212 119.435C203.087 120.717 203.93 122.019 204.742 123.341C205.553 124.664 206.331 126.005 207.077 127.366C207.823 128.727 208.535 130.105 209.214 131.5C209.892 132.896 210.536 134.307 211.145 135.734C211.755 137.161 212.328 138.602 212.867 140.057C213.406 141.512 213.909 142.98 214.376 144.46C214.843 145.939 215.274 147.429 215.668 148.93C217.11 154.568 218.066 160.25 218.823 166.016C219.04 167.665 219.235 172.352 220.012 173.489L218.053 182.523C222.071 179.518 225.937 176.292 229.851 173.153C229.609 177.155 229.798 181.013 230.238 184.993C228.174 185.609 226.171 186.711 224.12 187.427C217.526 189.727 212.237 187.469 206.007 185.119C206.212 183.135 206.321 181.145 206.334 179.15C206.346 177.155 206.263 175.164 206.083 173.177C209.844 176.412 213.707 179.521 217.671 182.504C216.479 177.191 215.382 171.691 213.701 166.516C213.423 165.669 213.13 164.827 212.823 163.991C212.516 163.154 212.194 162.323 211.859 161.497C211.523 160.671 211.173 159.852 210.81 159.038C210.446 158.224 210.069 157.417 209.678 156.616C209.287 155.815 208.882 155.021 208.464 154.234C208.045 153.447 207.614 152.667 207.169 151.895C206.724 151.122 206.266 150.358 205.795 149.601C205.325 148.844 204.841 148.096 204.344 147.356C203.847 146.615 203.339 145.884 202.817 145.161C202.296 144.438 201.762 143.724 201.216 143.02C200.67 142.315 200.113 141.62 199.543 140.934C198.974 140.249 198.392 139.573 197.8 138.907C197.207 138.242 196.604 137.586 195.988 136.941C195.373 136.296 194.748 135.661 194.111 135.037C193.474 134.414 192.827 133.801 192.17 133.199C191.512 132.598 190.845 132.007 190.167 131.428C185.989 127.925 181.419 124.907 176.942 121.805C176.904 118.63 176.382 111.546 177.114 108.785C177.991 107.534 178.36 97.8335 178.961 95.1319Z" fill="white"/>
<path d="M213.152 49.796L213.307 49.9037L213.319 63.756C208.418 63.9996 203.529 64.2274 198.661 64.8759C196.392 65.1994 194.132 65.5763 191.881 66.0063C189.63 66.4363 187.39 66.9189 185.161 67.454C182.933 67.989 180.718 68.5762 178.517 69.2154C176.317 69.8547 174.132 70.5451 171.964 71.2868C169.795 72.0285 167.645 72.8209 165.514 73.664C163.383 74.5067 161.273 75.399 159.183 76.3409C157.094 77.283 155.028 78.2735 152.985 79.3124C150.943 80.3516 148.926 81.438 146.934 82.5717C141.86 85.4709 137.176 88.8997 132.22 91.9662C129.736 89.6763 127.308 87.3597 125.069 84.8241L121.983 81.4379C125.41 77.8698 133.043 73.5835 137.485 71.0948C141.181 69.0242 144.886 66.8881 148.699 65.0432C149.956 64.4494 151.22 63.872 152.492 63.3111C153.764 62.7502 155.043 62.2061 156.329 61.6787C157.615 61.1513 158.908 60.6407 160.207 60.1471C161.506 59.6535 162.812 59.1771 164.124 58.7178C165.436 58.2582 166.754 57.816 168.077 57.391C169.4 56.9658 170.729 56.5582 172.063 56.1682C173.397 55.7779 174.736 55.4051 176.08 55.0497C177.424 54.6946 178.772 54.3569 180.125 54.0367C181.478 53.7168 182.834 53.4147 184.195 53.1302C185.556 52.8455 186.92 52.5789 188.287 52.3302C189.655 52.0813 191.025 51.8502 192.399 51.637C193.773 51.4241 195.149 51.2291 196.527 51.052C197.906 50.8752 199.287 50.7162 200.67 50.5751C202.052 50.4343 203.437 50.3116 204.823 50.2068C206.209 50.1021 207.596 50.0154 208.984 49.9467C210.373 49.8783 211.762 49.828 213.152 49.796Z" fill="white"/>
<path d="M121.983 81.4379C125.41 77.8698 133.043 73.5835 137.485 71.0948C141.181 69.0242 144.886 66.8881 148.699 65.0432C149.956 64.4494 151.22 63.872 152.492 63.3111C153.764 62.7502 155.043 62.2061 156.329 61.6787C157.615 61.1513 158.908 60.6407 160.207 60.1471C161.506 59.6535 162.812 59.1771 164.124 58.7178C165.436 58.2582 166.754 57.816 168.077 57.391C169.4 56.9658 170.729 56.5582 172.063 56.1682C173.397 55.7779 174.736 55.4051 176.08 55.0497C177.424 54.6946 178.772 54.3569 180.125 54.0367C181.478 53.7168 182.834 53.4147 184.195 53.1302C185.556 52.8455 186.92 52.5789 188.287 52.3302C189.655 52.0813 191.025 51.8502 192.399 51.637C193.773 51.4241 195.149 51.2291 196.527 51.052C197.906 50.8752 199.287 50.7162 200.67 50.5751C202.052 50.4343 203.437 50.3116 204.823 50.2068C206.209 50.1021 207.596 50.0154 208.984 49.9467C210.373 49.8783 211.762 49.828 213.152 49.796L213.166 54.6865C187.339 55.8944 164.936 61.3444 142.253 74.0169C138.465 76.1354 134.757 78.3845 131.128 80.7643C129.127 82.0834 127.171 83.6898 125.069 84.8241L121.983 81.4379Z" fill="white"/>
<path d="M296.895 278.231C294.648 284.648 291.372 290.985 288.158 296.968C287.106 298.885 286.027 300.787 284.92 302.673C283.813 304.559 282.679 306.428 281.517 308.281C280.356 310.134 279.168 311.97 277.953 313.788C276.738 315.607 275.497 317.407 274.23 319.19C272.964 320.972 271.671 322.736 270.352 324.48C269.034 326.225 267.691 327.95 266.322 329.656C264.954 331.362 263.561 333.047 262.143 334.713C260.726 336.378 259.284 338.022 257.819 339.645C256.354 341.269 254.865 342.87 253.353 344.45C251.842 346.03 250.307 347.588 248.75 349.124C247.193 350.659 245.614 352.171 244.013 353.661C242.412 355.151 240.789 356.617 239.146 358.059C237.502 359.501 235.837 360.919 234.152 362.313C232.468 363.707 230.763 365.077 229.038 366.421C227.313 367.766 225.569 369.085 223.806 370.379C222.043 371.672 220.262 372.94 218.462 374.182C218.131 372.105 218.327 369.738 218.337 367.632C218.359 363.093 218.47 358.537 218.338 354C222.153 352.111 225.781 349.609 229.282 347.202C244.215 336.934 257.502 324.186 267.585 309.083C269.836 305.678 271.93 302.179 273.866 298.585C274.925 296.626 275.939 294.016 277.282 292.297C277.345 292.217 277.409 292.138 277.473 292.059C278.673 291.607 279.88 290.695 280.968 290.007C286.612 286.439 291.561 282.201 296.895 278.231Z" fill="#FDFDFD"/>
<path d="M108.585 231.513C108.689 231.522 108.795 231.512 108.895 231.541C109.23 231.636 109.337 231.863 109.492 232.147C113.136 238.79 117.186 244.93 121.512 251.142C116.536 265.839 114.594 281.03 114.131 296.472C110.45 293.039 107.203 288.695 104.138 284.707C92.0365 268.983 83.7401 250.775 78.8266 231.613C88.7367 231.516 98.6825 231.857 108.585 231.513Z" fill="currentColor"/>
<path d="M198.449 204.314C201.317 204.142 205.402 202.007 208.196 201.033C203.416 207.96 198.212 214.644 193.254 221.448C191.983 221.552 185.832 225.593 184.227 226.475C176.276 230.844 167.883 234.57 160.063 239.138C163.721 243.687 167.37 248.321 171.257 252.676C177.871 260.085 185.277 267.11 192.881 273.487C197.307 277.251 201.86 280.856 206.54 284.302C210.138 286.922 213.96 289.369 217.443 292.128C217.862 292.459 218.141 292.751 218.408 293.221C215.287 292.964 211.563 291.396 208.605 290.376C196.184 286.092 184.023 281.231 172.342 275.189C167.722 272.799 163.269 269.611 158.506 267.586C152.472 252.791 149.832 237.094 149.868 221.181C154.725 222.231 159.463 222.995 164.449 222.887C174.953 222.66 184.805 218.231 192.382 211C194.571 208.912 196.359 206.481 198.449 204.314Z" fill="white"/>
<path d="M307.747 259.445L309.6 257.735C310.239 259.739 310.857 261.725 311.336 263.775C311.209 263.934 311.034 264.064 310.957 264.251C310.639 265.023 309.63 279.07 309.377 281.355L307.554 278.968L307.765 281.451C306.867 283.276 306.639 286.014 306.224 288.029C305.651 290.811 305.038 293.579 304.147 296.279C303.443 298.43 302.625 300.538 301.694 302.601C300.853 304.419 299.331 306.522 298.956 308.463L298.718 308.144C298.546 308.532 298.453 308.85 298.39 309.27L298.203 308.828C297.519 309.077 296.927 310.213 296.56 310.825C294.09 314.936 291.875 319.263 289.163 323.22C287.657 325.417 285.01 327.901 283.84 330.121C283.708 330.371 283.676 330.608 283.636 330.883L283.499 330.181L283.282 330.105C283.049 330.754 282.838 331.41 282.648 332.073L282.37 331.836C280.716 333.714 279.301 335.916 277.847 337.956C274.557 342.571 271.288 347.024 267.116 350.891C266.127 351.808 265.029 352.945 263.86 353.619L263.452 354.403C263.175 356.422 262.825 358.259 261.935 360.112C258.634 366.988 247.488 378.502 241.408 383.126C241.252 380.435 241.114 377.905 240.408 375.289C238.854 380.18 236.156 384.239 232.996 388.249C232.435 388.961 231.823 389.933 231.15 390.505C227.627 395.718 222.877 400.405 218.666 405.082C217.958 403.845 218.523 383.025 218.349 379.815C225.71 374.786 232.892 369.655 239.679 363.858C270.479 337.552 298.526 299.401 307.747 259.445Z" fill="white"/>
<path d="M231.15 390.505L230.942 390.258C232.378 388.212 233.934 386.134 235.449 384.141C235.859 383.601 236.464 383.069 236.766 382.474C237.653 380.721 240.439 376.655 239.965 374.748C239.885 374.428 239.911 374.508 239.632 374.377L239.676 374.521L239.399 374.936L239.111 374.64L239.113 374.815C234.877 378.815 231.67 383.179 228.993 388.329C229.107 387.309 229.857 385.685 230.449 384.84C234.161 379.54 237.74 375.012 243.021 371.127C246.83 368.324 250.9 365.902 254.554 362.885C257.713 360.278 260.257 356.923 263.452 354.403C263.175 356.422 262.825 358.259 261.935 360.112C258.634 366.988 247.488 378.503 241.408 383.127C241.252 380.436 241.114 377.905 240.408 375.29C238.854 380.181 236.156 384.24 232.996 388.249C232.435 388.961 231.823 389.933 231.15 390.505Z" fill="white"/>
<path d="M248.37 172.625C249.34 171.505 250.021 170.126 250.815 168.879C251.549 167.706 252.355 166.585 253.233 165.517C254.112 164.448 255.055 163.44 256.064 162.493C261.215 157.686 267.276 155.945 274.189 155.674C276.101 155.599 278.123 155.508 280.018 155.816C282.257 156.179 284.751 157.455 286.979 157.448C287.117 157.447 287.255 157.439 287.392 157.435C292.617 160.747 295.889 165.903 297.232 171.896C297.325 172.302 297.407 172.711 297.479 173.122C297.551 173.533 297.612 173.946 297.664 174.36C297.715 174.774 297.756 175.189 297.787 175.605C297.818 176.021 297.838 176.437 297.848 176.855C297.858 177.272 297.858 177.689 297.847 178.106C297.836 178.523 297.815 178.939 297.783 179.355C297.752 179.771 297.71 180.186 297.658 180.6C297.605 181.014 297.543 181.426 297.47 181.837C297.397 182.248 297.314 182.657 297.221 183.063C297.128 183.47 297.025 183.874 296.912 184.276C296.798 184.677 296.675 185.076 296.542 185.471C296.409 185.867 296.266 186.258 296.113 186.646C295.961 187.035 295.798 187.419 295.627 187.799C295.455 188.179 295.273 188.555 295.083 188.926C294.893 189.297 294.693 189.663 294.484 190.025C294.275 190.386 294.058 190.742 293.831 191.092C293.624 191.419 293.409 191.741 293.186 192.058C292.963 192.374 292.732 192.685 292.494 192.991C292.256 193.296 292.01 193.595 291.757 193.888C291.504 194.181 291.244 194.468 290.977 194.748C290.709 195.028 290.435 195.302 290.155 195.569C289.874 195.835 289.587 196.095 289.294 196.348C289 196.601 288.701 196.846 288.395 197.084C288.09 197.322 287.779 197.552 287.462 197.775C287.145 197.998 286.823 198.212 286.495 198.419C286.168 198.626 285.836 198.824 285.499 199.015C285.161 199.205 284.82 199.387 284.473 199.561C284.127 199.734 283.777 199.9 283.423 200.056C283.069 200.212 282.711 200.36 282.349 200.498C281.988 200.637 281.623 200.767 281.255 200.887C280.887 201.008 280.516 201.12 280.143 201.223C279.769 201.325 279.394 201.418 279.016 201.502C278.596 201.591 278.174 201.67 277.749 201.738C277.326 201.806 276.9 201.864 276.473 201.911C276.047 201.958 275.619 201.995 275.19 202.021C274.762 202.047 274.333 202.063 273.903 202.068C273.474 202.074 273.045 202.068 272.616 202.052C272.187 202.037 271.758 202.011 271.33 201.974C270.903 201.937 270.476 201.889 270.05 201.832C269.625 201.774 269.201 201.706 268.779 201.627C268.357 201.549 267.937 201.46 267.519 201.361C267.101 201.261 266.686 201.152 266.273 201.033C265.861 200.913 265.452 200.784 265.046 200.644C264.64 200.505 264.237 200.355 263.838 200.196C263.44 200.036 263.045 199.867 262.655 199.689C262.264 199.51 261.878 199.322 261.497 199.124C261.116 198.927 260.74 198.72 260.369 198.504C259.998 198.288 259.632 198.063 259.272 197.829C258.93 197.605 258.593 197.372 258.263 197.132C257.932 196.891 257.608 196.642 257.289 196.385C256.971 196.128 256.66 195.864 256.354 195.591C256.049 195.319 255.751 195.039 255.46 194.752C255.169 194.465 254.885 194.171 254.608 193.87C254.331 193.569 254.062 193.261 253.801 192.946C253.539 192.632 253.286 192.311 253.04 191.984C252.795 191.657 252.557 191.324 252.328 190.985C252.099 190.646 251.879 190.302 251.667 189.953C251.454 189.603 251.251 189.248 251.057 188.888C250.862 188.528 250.677 188.164 250.5 187.795C250.324 187.426 250.157 187.053 249.999 186.675C249.841 186.298 249.692 185.917 249.553 185.533C249.414 185.148 249.285 184.76 249.165 184.369C249.045 183.978 248.935 183.584 248.835 183.188C248.734 182.791 248.644 182.393 248.563 181.992C248.406 181.222 248.283 180.447 248.196 179.667C248.108 178.886 248.056 178.103 248.04 177.318C248.024 176.532 248.043 175.748 248.098 174.964C248.154 174.18 248.244 173.401 248.37 172.625Z" fill="#FDFDFD"/>
<path d="M271.152 157.895C271.397 157.867 271.642 157.843 271.887 157.825C272.133 157.807 272.379 157.793 272.625 157.785C272.871 157.777 273.117 157.774 273.363 157.775C273.609 157.777 273.856 157.784 274.101 157.796C274.347 157.808 274.593 157.825 274.838 157.846C275.084 157.868 275.328 157.895 275.572 157.926C275.817 157.959 276.06 157.995 276.303 158.037C276.545 158.079 276.787 158.126 277.028 158.177C277.269 158.229 277.508 158.285 277.747 158.347C277.985 158.408 278.222 158.474 278.458 158.545C278.694 158.616 278.928 158.692 279.161 158.773C279.394 158.853 279.625 158.939 279.854 159.029C280.083 159.119 280.31 159.213 280.536 159.312C280.761 159.412 280.984 159.516 281.205 159.624C281.426 159.733 281.645 159.845 281.862 159.963C282.078 160.08 282.292 160.202 282.504 160.328C286.957 163.07 290.094 167.028 291.314 172.17C292.333 176.47 291.851 181.668 289.523 185.495C289.492 185.546 289.458 185.594 289.426 185.644C289.344 185.492 289.203 185.36 289.179 185.19C289.13 184.832 290.072 183.264 290.256 182.759C291.039 180.608 291.863 177.547 291.571 175.257C291.502 174.71 291.373 174.528 290.939 174.218C291.159 177.802 290.726 182.16 288.612 185.18L288.243 185.24C290.179 181.177 291.181 177.328 290.288 172.825C289.234 167.505 285.985 163.773 281.586 160.848C278.595 159.382 275.886 158.873 272.567 158.753C268.105 159.082 264.626 160.542 261.16 163.348L261.277 161.899C264.232 159.639 267.498 158.436 271.152 157.895Z" fill="currentColor"/>
<path d="M261.277 161.899L261.16 163.348C257.647 166.892 255.611 171.402 255.662 176.442C255.662 176.728 255.669 177.014 255.683 177.3C255.698 177.586 255.719 177.871 255.748 178.156C255.777 178.441 255.812 178.724 255.855 179.007C255.899 179.29 255.949 179.572 256.006 179.853C256.063 180.133 256.127 180.412 256.198 180.689C256.269 180.967 256.347 181.242 256.432 181.515C256.517 181.789 256.609 182.06 256.708 182.329C256.807 182.597 256.912 182.863 257.024 183.127C257.136 183.39 257.254 183.651 257.379 183.908C257.504 184.166 257.636 184.42 257.774 184.671C257.911 184.922 258.055 185.169 258.206 185.412C258.356 185.656 258.512 185.896 258.674 186.132C258.837 186.367 259.005 186.599 259.179 186.826C259.353 187.054 259.533 187.277 259.718 187.495C259.903 187.713 260.093 187.927 260.289 188.136C260.485 188.344 260.686 188.548 260.892 188.747C264.3 191.994 269.223 193.799 273.922 193.632C274.208 193.62 274.493 193.6 274.778 193.574C275.063 193.548 275.347 193.515 275.631 193.475C275.914 193.435 276.197 193.388 276.478 193.335C276.759 193.281 277.038 193.22 277.316 193.153C277.595 193.086 277.871 193.012 278.146 192.932C278.42 192.851 278.693 192.764 278.963 192.67C279.234 192.577 279.502 192.476 279.767 192.37C280.033 192.263 280.295 192.15 280.555 192.03C280.816 191.911 281.073 191.786 281.326 191.654C281.58 191.522 281.831 191.384 282.078 191.24C282.326 191.096 282.57 190.946 282.809 190.79C283.05 190.634 283.286 190.473 283.518 190.306C283.75 190.138 283.978 189.966 284.202 189.787C284.426 189.609 284.646 189.426 284.86 189.237C285.076 189.048 285.286 188.854 285.491 188.655C285.697 188.456 285.898 188.252 286.093 188.043C286.888 187.187 287.611 186.221 288.243 185.24L288.612 185.18C290.726 182.16 291.159 177.802 290.939 174.218C291.373 174.528 291.502 174.71 291.571 175.257C291.863 177.547 291.039 180.608 290.256 182.759C290.072 183.264 289.13 184.832 289.179 185.19C289.203 185.361 289.344 185.492 289.426 185.644C288.651 187.638 286.806 189.695 285.22 191.101C284.997 191.3 284.769 191.493 284.536 191.68C284.304 191.867 284.066 192.049 283.825 192.224C283.583 192.4 283.337 192.569 283.087 192.732C282.837 192.896 282.583 193.053 282.325 193.203C282.068 193.354 281.806 193.498 281.541 193.636C281.276 193.774 281.008 193.905 280.736 194.029C280.465 194.154 280.191 194.272 279.913 194.383C279.636 194.494 279.356 194.597 279.074 194.694C278.791 194.792 278.506 194.882 278.22 194.964C277.933 195.048 277.644 195.124 277.353 195.192C277.062 195.261 276.77 195.322 276.477 195.376C276.183 195.43 275.888 195.477 275.592 195.517C275.296 195.557 274.999 195.589 274.702 195.614C274.404 195.639 274.106 195.656 273.808 195.666C273.509 195.676 273.21 195.679 272.912 195.675C272.613 195.67 272.315 195.658 272.017 195.638C266.969 195.306 262.064 193.003 258.74 189.161C255.402 185.305 253.887 180.209 254.259 175.151C254.651 169.801 257.261 165.356 261.277 161.899Z" fill="currentColor"/>
<path d="M272.567 158.753C275.886 158.873 278.595 159.382 281.586 160.848C285.985 163.773 289.234 167.505 290.288 172.825C291.181 177.328 290.179 181.177 288.243 185.24C287.611 186.221 286.888 187.187 286.093 188.043C285.898 188.252 285.697 188.456 285.491 188.655C285.286 188.854 285.076 189.048 284.86 189.237C284.646 189.426 284.426 189.609 284.202 189.787C283.978 189.966 283.75 190.138 283.518 190.306C283.286 190.473 283.05 190.634 282.809 190.79C282.57 190.946 282.326 191.096 282.078 191.24C281.831 191.384 281.58 191.522 281.326 191.654C281.073 191.786 280.816 191.911 280.555 192.03C280.295 192.15 280.033 192.263 279.767 192.37C279.502 192.476 279.234 192.577 278.963 192.67C278.693 192.764 278.42 192.851 278.146 192.932C277.871 193.012 277.595 193.086 277.316 193.153C277.038 193.22 276.759 193.281 276.478 193.335C276.197 193.388 275.914 193.435 275.631 193.475C275.347 193.515 275.063 193.548 274.778 193.574C274.493 193.6 274.208 193.62 273.922 193.632C269.223 193.799 264.3 191.994 260.892 188.747C260.686 188.548 260.485 188.344 260.289 188.136C260.093 187.927 259.903 187.713 259.718 187.495C259.533 187.277 259.353 187.054 259.179 186.826C259.005 186.599 258.837 186.367 258.674 186.132C258.512 185.896 258.356 185.656 258.206 185.412C258.055 185.169 257.911 184.922 257.773 184.671C257.636 184.42 257.504 184.166 257.379 183.908C257.254 183.651 257.136 183.39 257.024 183.127C256.912 182.863 256.807 182.597 256.708 182.328C256.609 182.06 256.517 181.789 256.432 181.515C256.347 181.242 256.269 180.967 256.198 180.689C256.127 180.412 256.063 180.133 256.006 179.853C255.949 179.572 255.898 179.29 255.855 179.007C255.812 178.724 255.777 178.441 255.748 178.156C255.719 177.871 255.698 177.586 255.683 177.3C255.669 177.014 255.662 176.728 255.662 176.442C255.611 171.402 257.647 166.892 261.16 163.348C264.626 160.542 268.105 159.082 272.567 158.753Z" fill="currentColor"/>
<path d="M282.615 169.065C283.475 169.578 284.083 171.11 284.366 172.046C285.214 174.846 284.85 178.349 283.477 180.91C283.384 181.085 283.285 181.258 283.182 181.428C283.08 181.598 282.973 181.765 282.862 181.93C282.751 182.095 282.636 182.256 282.517 182.415C282.397 182.574 282.274 182.73 282.147 182.882C282.02 183.035 281.889 183.184 281.754 183.33C281.62 183.476 281.481 183.619 281.34 183.758C281.198 183.897 281.052 184.032 280.904 184.164C280.755 184.296 280.603 184.424 280.448 184.548C280.293 184.672 280.135 184.792 279.974 184.908C279.813 185.024 279.648 185.136 279.482 185.244C279.315 185.352 279.145 185.455 278.973 185.555C278.801 185.654 278.627 185.748 278.45 185.839C278.273 185.93 278.094 186.016 277.913 186.097C277.732 186.179 277.549 186.255 277.364 186.327C277.179 186.399 276.992 186.467 276.803 186.53C276.615 186.593 276.425 186.651 276.234 186.704C276.04 186.755 275.846 186.801 275.65 186.843C275.455 186.884 275.259 186.921 275.062 186.953C274.864 186.986 274.666 187.013 274.468 187.035C274.269 187.058 274.07 187.075 273.87 187.088C273.671 187.101 273.471 187.109 273.271 187.112C273.071 187.115 272.871 187.114 272.672 187.107C272.472 187.1 272.272 187.089 272.073 187.073C271.874 187.056 271.675 187.035 271.477 187.009C271.279 186.983 271.081 186.952 270.885 186.917C270.688 186.881 270.492 186.841 270.297 186.796C270.103 186.751 269.909 186.701 269.717 186.647C269.525 186.592 269.334 186.533 269.144 186.469C268.955 186.405 268.767 186.337 268.581 186.264C268.394 186.191 268.21 186.114 268.028 186.032C267.846 185.951 267.665 185.864 267.487 185.773C267.309 185.683 267.133 185.588 266.959 185.489C264.375 183.979 262.584 181.44 261.858 178.552C261.811 178.362 261.768 178.17 261.73 177.978C261.692 177.786 261.658 177.593 261.629 177.399C261.601 177.206 261.577 177.011 261.558 176.816C261.539 176.621 261.525 176.426 261.515 176.23C261.505 176.034 261.501 175.838 261.501 175.642C261.501 175.447 261.506 175.251 261.516 175.055C261.526 174.859 261.54 174.664 261.56 174.469C261.579 174.274 261.603 174.08 261.632 173.886C261.662 173.692 261.695 173.499 261.734 173.307C261.772 173.115 261.816 172.924 261.864 172.734C261.912 172.544 261.964 172.355 262.021 172.168C262.078 171.98 262.14 171.794 262.207 171.61C262.273 171.426 262.344 171.243 262.419 171.062C262.495 170.881 262.574 170.702 262.658 170.525C262.743 170.349 262.831 170.174 262.924 170.001C263.017 169.829 263.114 169.658 263.215 169.491C263.312 169.332 263.413 169.175 263.517 169.022C263.622 168.868 263.73 168.716 263.842 168.568C263.955 168.419 264.07 168.274 264.19 168.131C264.309 167.988 264.432 167.849 264.559 167.712C264.685 167.576 264.815 167.442 264.948 167.312C265.081 167.182 265.217 167.055 265.357 166.932C265.496 166.809 265.639 166.689 265.784 166.573C265.929 166.457 266.078 166.345 266.229 166.236C266.38 166.127 266.533 166.022 266.69 165.921C266.846 165.82 267.005 165.723 267.166 165.63C267.327 165.537 267.49 165.448 267.656 165.363C267.822 165.278 267.989 165.197 268.159 165.121C268.328 165.044 268.5 164.972 268.673 164.904C268.846 164.836 269.021 164.772 269.198 164.713C269.374 164.654 269.552 164.599 269.731 164.549C269.91 164.498 270.091 164.453 270.272 164.411C272.615 163.864 276.161 163.931 278.223 165.24C280.4 166.123 281.46 167.019 282.615 169.065Z" fill="currentColor"/>
<path d="M282.615 169.065C282.706 169.347 282.795 169.622 282.846 169.915C283.161 171.691 282.775 173.444 281.648 174.862C280.629 176.144 279.134 177.202 277.465 177.331C275.961 177.446 274.482 176.81 273.375 175.816C273.203 175.663 273.039 175.502 272.884 175.332C272.728 175.163 272.582 174.985 272.445 174.801C272.307 174.616 272.18 174.424 272.063 174.226C271.946 174.028 271.839 173.825 271.743 173.615C271.646 173.406 271.561 173.193 271.487 172.975C271.413 172.757 271.35 172.535 271.299 172.311C271.248 172.086 271.209 171.86 271.181 171.631C271.154 171.403 271.138 171.173 271.134 170.943C271.121 169.464 271.611 167.954 272.681 166.902C274.157 165.452 276.25 165.167 278.223 165.24C280.4 166.123 281.46 167.019 282.615 169.065Z" fill="#FDFDFD"/>
<path d="M344.555 44.8918C345.061 43.2043 345.687 41.5622 346.432 39.9656C346.723 54.3216 346.374 70.4195 339.886 83.5975C338.898 85.6042 337.595 87.4316 336.256 89.2165C335.608 90.08 334.775 90.9724 334.277 91.9177C341.994 87.969 351.318 78.7921 356.735 72.0997C356.502 73.7543 356.17 75.4046 355.881 77.0511C355.787 77.146 355.691 77.2388 355.599 77.3359C354.114 78.8985 350.364 86.7504 348.477 89.4779C337.618 105.174 325.176 114.658 307.484 121.581L306.97 121.751C308.201 122.743 319.427 122.109 321.339 121.902C322.392 121.789 323.441 121.665 324.48 121.455C326.62 122.555 330.489 121.262 332.686 120.735C327.158 124.216 321.828 127.622 315.686 129.964C302.791 134.883 292.42 134.643 279.093 136.468C270.904 137.589 262.669 139.684 255.079 142.99C250.256 145.09 245.441 147.631 241.203 150.75C239.201 152.224 237.36 154.026 235.325 155.422C235.415 154.092 236.181 153.589 237.06 152.72C240.226 149.589 243.465 146.493 247.031 143.816C255.936 137.132 266.352 132.946 276.247 128.014C281.392 125.449 286.498 122.846 291.397 119.828C313.241 106.371 329.742 87.576 338.634 63.3401C339.297 61.5343 341.973 54.044 341.223 52.4252C342.39 49.9275 343.575 47.4725 344.555 44.8918Z" fill="#B2BFC4"/>
<path d="M344.555 44.8918C345.061 43.2043 345.687 41.5622 346.432 39.9656C346.723 54.3216 346.374 70.4195 339.886 83.5975C338.898 85.6042 337.595 87.4316 336.256 89.2165C335.608 90.08 334.775 90.9724 334.277 91.9177C333.771 92.782 329.521 94.7274 328.466 95.2456C328.71 94.9437 328.936 94.6299 329.157 94.3101C337.376 82.4564 342.148 67.8951 344.053 53.6927C344.425 50.9264 345.05 47.6343 344.555 44.8918Z" fill="#788597"/>
<path d="M89.4741 40.1657C90.4066 41.9991 91.2666 43.8657 92.0543 45.7655C91.6784 48.9448 93.1328 52.8833 93.9929 55.9613C97.9195 70.018 102.739 82.1592 111.884 93.7378C120.201 104.269 130.217 112.784 141.633 119.788C146.138 122.592 150.793 125.123 155.595 127.381C170.134 134.17 185.815 139.411 197.085 151.39C198.28 152.659 199.93 154.116 200.562 155.752C198.535 154.565 196.759 152.745 194.802 151.401C189.264 147.6 183.45 145.027 177.135 142.833C173.63 141.611 170.088 140.51 166.508 139.529C162.928 138.548 159.319 137.69 155.681 136.955C138.348 133.328 119.752 131.889 104.891 121.332C103.099 120.059 101.061 118.751 99.6115 117.096L99.6835 116.766C109.99 121.19 119.927 124.244 131.236 124.564C131.143 124.468 131.064 124.355 130.956 124.277C130.913 124.246 121.314 122.113 119.93 121.687C113.8 119.799 108.058 117.409 102.735 113.77C90.2133 105.206 82.8272 91.1572 80.1163 76.4673C80.221 75.832 80.2031 75.5442 80.6234 75.0431C81.4762 75.4582 81.6682 76.5925 82.2103 77.3338C82.0038 76.4281 81.7815 75.5911 81.8339 74.6539C87.1578 81.1943 93.3381 86.6243 100.94 90.3878C95.1366 80.0967 90.9328 66.7233 89.7896 54.9602C89.3097 50.0229 89.3749 45.1192 89.4741 40.1657Z" fill="#B2BFC4"/>
<path d="M80.1163 76.4673C80.221 75.8321 80.2031 75.5442 80.6234 75.0431C81.4762 75.4582 81.6682 76.5925 82.2103 77.3338C83.1827 80.6775 84.8684 83.6196 86.6337 86.5984C87.0947 87.3761 87.5684 88.1461 88.055 88.9082C88.5412 89.6704 89.0398 90.4244 89.5507 91.1704C90.0617 91.9164 90.5847 92.6538 91.1197 93.3828C91.6548 94.1114 92.2016 94.8313 92.7603 95.5423C93.3192 96.2531 93.8894 96.9546 94.4711 97.647C95.0527 98.3393 95.6454 99.0218 96.2491 99.6945C96.8532 100.368 97.468 101.03 98.0936 101.683C98.7192 102.336 99.3553 102.978 100.002 103.61C100.649 104.242 101.305 104.863 101.972 105.474C102.639 106.084 103.316 106.684 104.003 107.272C104.689 107.86 105.385 108.437 106.091 109.003C106.796 109.568 107.51 110.122 108.234 110.664C108.958 111.207 109.69 111.737 110.431 112.255C111.172 112.773 111.921 113.279 112.678 113.773C113.436 114.266 114.201 114.748 114.975 115.216C115.748 115.685 116.528 116.141 117.316 116.584C124.09 120.312 131.039 122.938 138.573 124.65C136.952 124.763 132.65 125.22 131.236 124.564C131.143 124.468 131.064 124.355 130.956 124.277C130.913 124.246 121.314 122.113 119.93 121.687C113.8 119.799 108.058 117.409 102.735 113.77C90.2133 105.206 82.8272 91.1572 80.1163 76.4673Z" fill="#788597"/>
<path d="M332.041 204.975C350.43 205.492 368.889 204.743 387.29 205.015C387.05 223.171 383.112 241.926 376.838 258.93C375.715 261.974 374.364 264.933 373.018 267.883C372.394 269.251 371.628 270.654 371.137 272.071C368.586 276.893 366.181 281.808 363.354 286.478C362.874 287.283 362.386 288.083 361.891 288.879C361.397 289.676 360.896 290.468 360.388 291.256C359.881 292.044 359.366 292.827 358.845 293.606C358.324 294.386 357.797 295.16 357.263 295.931C356.729 296.701 356.188 297.467 355.641 298.228C355.094 298.989 354.541 299.746 353.98 300.497C353.421 301.249 352.855 301.996 352.282 302.738C351.71 303.48 351.131 304.218 350.546 304.95C349.961 305.682 349.37 306.41 348.773 307.132C348.176 307.855 347.572 308.572 346.963 309.284C346.353 309.997 345.738 310.704 345.117 311.405C344.495 312.107 343.868 312.804 343.235 313.495C342.602 314.186 341.963 314.872 341.318 315.552C340.674 316.233 340.023 316.908 339.367 317.577C338.711 318.246 338.049 318.91 337.382 319.568C336.714 320.227 336.042 320.879 335.363 321.526C334.685 322.173 334.001 322.814 333.312 323.449C332.623 324.084 331.928 324.714 331.228 325.337C330.528 325.961 329.823 326.578 329.113 327.19C328.403 327.802 327.687 328.407 326.966 329.007C326.246 329.606 325.52 330.2 324.79 330.787C324.059 331.374 323.324 331.955 322.583 332.53C321.843 333.105 321.098 333.673 320.348 334.235C319.598 334.798 318.843 335.353 318.084 335.903C317.324 336.452 316.56 336.995 315.791 337.532C315.023 338.068 314.25 338.598 313.472 339.122C312.695 339.645 311.913 340.162 311.126 340.672C310.34 341.182 309.55 341.686 308.755 342.182C307.96 342.679 307.161 343.17 306.358 343.653C305.555 344.136 304.748 344.613 303.936 345.082C303.125 345.552 302.31 346.015 301.491 346.471C300.672 346.927 299.849 347.376 299.023 347.818C292.562 351.324 284.623 355.492 277.723 358.024C279.807 355.272 281.819 352.468 283.76 349.613C284.854 349.25 285.896 348.951 286.838 348.262C288.377 345.992 290.254 343.912 291.873 341.689C294.876 337.567 297.274 333.157 299.345 328.506C314.772 319.204 327.426 306.323 339.101 292.772L339.334 292.575C343.533 292.336 349.644 292.194 353.78 292.564C355.888 290.522 360.249 282.738 361.814 279.897C370.5 264.138 377.206 246.709 380.243 228.914C381.328 222.55 381.868 216.118 382.374 209.688C365.579 209.847 348.785 209.782 331.991 209.492C331.788 208.282 331.236 206.281 331.585 205.125L332.041 204.975Z" fill="white"/>
<path d="M339.334 292.575C343.533 292.336 349.644 292.194 353.78 292.565C352.88 293.871 351.961 295.165 351.023 296.444C350.084 297.724 349.128 298.99 348.152 300.241C347.177 301.493 346.183 302.73 345.171 303.952C344.16 305.175 343.13 306.382 342.083 307.575C341.036 308.767 339.971 309.943 338.889 311.104C337.808 312.265 336.709 313.41 335.594 314.538C334.478 315.667 333.347 316.779 332.198 317.874C331.05 318.969 329.886 320.048 328.707 321.109C327.527 322.17 326.331 323.213 325.121 324.239C323.91 325.265 322.685 326.273 321.445 327.263C320.205 328.253 318.951 329.225 317.682 330.178C316.413 331.131 315.131 332.066 313.835 332.981C312.538 333.896 311.229 334.792 309.907 335.669C308.584 336.546 307.249 337.403 305.902 338.241C304.554 339.079 303.194 339.897 301.822 340.694C300.451 341.492 299.068 342.269 297.673 343.026C294.23 344.86 290.562 347.111 286.838 348.262C288.377 345.992 290.254 343.912 291.873 341.689C294.876 337.567 297.274 333.157 299.345 328.506C314.772 319.204 327.426 306.323 339.101 292.772L339.334 292.575Z" fill="white"/>
<path d="M127.535 255.79C128.023 256.52 128.578 257.281 128.938 258.083C129.789 259.98 130.104 262.404 130.566 264.437C131.197 267.2 131.882 269.95 132.622 272.686C133.824 277.18 135.284 281.588 137.004 285.91C140.357 294.234 144.226 302.569 148.737 310.332C165.324 338.882 190.354 362.577 218.349 379.815C218.523 383.025 217.958 403.845 218.666 405.082L218.588 405.225L218.234 405.328C216.725 404.335 215.275 402.323 213.985 400.978C207.049 393.741 198.652 385.046 195.085 375.567C194.603 378.108 194.531 380.73 194.373 383.307C184.593 375.874 175.516 365.906 171.397 354.189C170.718 356.431 170.27 358.78 169.763 361.068C162.757 352.552 154.84 343.412 152.24 332.387C151.055 334.882 150.797 337.668 150.444 340.371C148.975 338.185 147.28 336.136 145.759 333.981C142.252 329.013 139.274 323.468 137.333 317.698C136.651 315.673 136.231 313.531 135.859 311.427C135.704 310.55 135.728 309.391 135.411 308.574C135.378 308.488 135.342 308.405 135.307 308.32C135.36 307.845 135.316 307.623 135.082 307.224C130.817 299.968 129.065 291.512 127.657 283.321C127.498 281.477 127.025 279.587 126.754 277.747C126.318 274.781 126.078 271.775 125.898 268.784C125.813 267.377 126.018 263.694 125.493 262.696C126.017 260.363 126.824 258.072 127.535 255.79Z" fill="white"/>
<path d="M54.1185 209.684C71.2638 209.621 88.4965 209.287 105.633 209.803C105.299 213.323 104.909 216.837 104.462 220.344L65.695 220.326C66.1485 226.195 67.5003 232.229 68.9161 237.936C76.6998 269.308 95.2 296.635 119.601 317.56C122.149 319.745 124.766 321.946 127.468 323.937C129.575 325.49 132.372 326.979 134.133 328.883C135.937 330.832 137.061 333.676 138.545 335.898C141.539 340.365 144.801 344.628 148.33 348.686C146.134 348.165 143.444 346.348 141.46 345.221C138.606 343.633 135.795 341.971 133.028 340.236C130.261 338.501 127.541 336.695 124.868 334.818C122.195 332.94 119.574 330.994 117.003 328.979C114.433 326.964 111.917 324.884 109.455 322.737C108.439 321.853 107.434 320.957 106.441 320.047C105.447 319.138 104.465 318.217 103.494 317.283C102.523 316.35 101.565 315.404 100.618 314.447C99.6707 313.489 98.7358 312.52 97.813 311.539C96.8902 310.558 95.9797 309.566 95.0816 308.562C94.1835 307.558 93.2981 306.544 92.4256 305.518C91.5527 304.492 90.6929 303.456 89.8462 302.408C88.9995 301.361 88.1659 300.304 87.3456 299.236C86.5252 298.168 85.7182 297.089 84.9246 296.001C84.1312 294.913 83.3515 293.815 82.5854 292.707C81.8192 291.6 81.0672 290.482 80.3291 289.356C79.5911 288.23 78.8671 287.094 78.1572 285.949C77.4476 284.805 76.7523 283.652 76.0713 282.49C75.3904 281.328 74.724 280.157 74.0723 278.979C73.4206 277.8 72.7836 276.614 72.1614 275.419C71.5392 274.225 70.932 273.023 70.3399 271.813C69.748 270.603 69.1713 269.387 68.6095 268.163C68.0478 266.939 67.5013 265.708 66.9702 264.47C66.4394 263.232 65.9241 261.988 65.4242 260.738C64.9244 259.487 64.4401 258.231 63.9715 256.968C63.5031 255.705 63.0505 254.437 62.6137 253.163C62.1768 251.889 61.756 250.61 61.3512 249.325C60.9464 248.041 60.5577 246.751 60.185 245.457C59.8123 244.163 59.4558 242.864 59.1154 241.561C58.7754 240.258 58.4515 238.951 58.1438 237.64C57.8361 236.329 57.545 235.014 57.2705 233.696C56.9958 232.377 56.7374 231.056 56.4956 229.731C56.2538 228.406 56.0287 227.078 55.8203 225.748C55.6117 224.417 55.4197 223.084 55.2442 221.749C55.0691 220.413 54.9106 219.076 54.7686 217.737C54.6267 216.398 54.5015 215.057 54.3931 213.714C54.285 212.372 54.1934 211.028 54.1185 209.684Z" fill="white"/>
<path d="M222.889 49.8892C249.499 51.0009 271.897 57.3246 295.304 70.0257C301.563 73.4217 308.176 77.2082 313.756 81.6376C312.542 83.0993 311.321 84.5568 309.979 85.9044C305.868 81.9327 300.384 78.7372 295.467 75.8793C294.096 75.0704 292.713 74.2829 291.318 73.5171C289.923 72.7513 288.516 72.0074 287.097 71.2856C285.679 70.5635 284.25 69.8638 282.809 69.1865C281.369 68.5089 279.919 67.8541 278.458 67.2219C276.998 66.5895 275.528 65.9801 274.048 65.3936C272.568 64.8072 271.08 64.244 269.583 63.7041C268.086 63.1639 266.581 62.6473 265.067 62.1543C263.554 61.6609 262.033 61.1914 260.506 60.7458C258.978 60.3001 257.443 59.8783 255.902 59.4804C254.361 59.0824 252.814 58.7084 251.262 58.3584C249.709 58.0087 248.152 57.6833 246.589 57.3821C245.026 57.081 243.459 56.8042 241.887 56.5518C240.316 56.2995 238.741 56.0716 237.162 55.868C235.584 55.6648 234.002 55.4863 232.418 55.3324C230.834 55.1783 229.248 55.049 227.66 54.9445C226.072 54.8398 224.483 54.7599 222.892 54.7048L222.889 49.8892Z" fill="white"/>
<path d="M178.961 95.1319C178.856 94.6478 178.786 94.1841 178.74 93.6911C178.829 93.6204 178.907 93.5356 179.004 93.4782C180.326 92.702 183.84 92.3005 185.423 91.9884C199.707 89.1718 214.152 87.8412 228.65 89.4158C232.024 89.274 243.566 91.3084 246.706 92.6624C248.681 93.3731 250.661 94.0656 252.648 94.7398C253.18 101.329 253.415 107.928 253.353 114.538C253.355 117.973 253.016 121.742 253.381 125.124C250.707 127.189 247.905 129.182 245.38 131.424C235.539 140.16 227.342 151.385 222.813 163.794C221.662 166.947 220.851 170.241 220.012 173.489C219.235 172.352 219.04 167.665 218.823 166.016C218.066 160.25 217.11 154.568 215.668 148.93C215.274 147.429 214.843 145.939 214.376 144.46C213.909 142.98 213.406 141.512 212.867 140.057C212.328 138.602 211.754 137.161 211.145 135.734C210.536 134.307 209.892 132.896 209.214 131.5C208.535 130.105 207.823 128.727 207.077 127.366C206.331 126.005 205.553 124.664 204.742 123.341C203.93 122.019 203.087 120.717 202.212 119.436C201.336 118.154 200.43 116.895 199.493 115.658C194.465 109.063 188.811 103.633 182.673 98.1213C181.825 97.3604 180.01 95.2724 178.961 95.1319Z" fill="white"/>
<path d="M349.088 114.681C351.719 117.736 353.951 121.279 356.062 124.708C356.717 125.783 357.359 126.866 357.988 127.956C358.617 129.047 359.232 130.145 359.835 131.25C360.437 132.355 361.026 133.468 361.602 134.587C362.177 135.707 362.739 136.833 363.287 137.967C363.835 139.1 364.37 140.239 364.89 141.385C365.411 142.532 365.918 143.684 366.411 144.842C366.903 146.001 367.382 147.165 367.847 148.334C368.312 149.505 368.762 150.68 369.199 151.861C369.635 153.042 370.057 154.228 370.465 155.419C370.872 156.61 371.265 157.805 371.644 159.006C372.023 160.206 372.387 161.411 372.737 162.621C373.086 163.83 373.421 165.043 373.741 166.261C374.062 167.478 374.367 168.699 374.658 169.924C374.949 171.149 375.225 172.377 375.486 173.608C375.747 174.84 375.993 176.074 376.224 177.312C376.455 178.549 376.672 179.789 376.873 181.032C377.572 185.331 378.241 189.795 378.356 194.152L373.446 194.156C370.964 171.969 365.541 152.487 354.676 132.868C352.28 128.542 349.721 123.755 346.247 120.207C347.218 118.378 348.166 116.536 349.088 114.681Z" fill="white"/>
<path d="M339.881 129.101C341.898 126.064 344.265 123.289 346.247 120.207C349.721 123.755 352.28 128.542 354.676 132.868C365.541 152.487 370.964 171.969 373.446 194.156C369.728 194.142 365.878 193.95 362.176 194.292C360.322 174.526 355.331 156.768 345.871 139.239C344.01 135.791 341.907 132.454 339.881 129.101Z" fill="white"/>
<path d="M206.007 185.119C212.237 187.469 217.526 189.727 224.12 187.427C226.171 186.711 228.174 185.609 230.238 184.993C232.956 197.914 239.122 208.48 250.346 215.84C260.589 222.557 272.126 224.503 284.056 221.976C284.549 221.871 285.042 221.763 285.535 221.653C285.192 223.757 284.665 229.838 284.107 231.356C282.805 240.035 281.441 248.704 280.017 257.364C279.215 262.298 278.601 267.337 277.514 272.214C262.607 281.401 246.859 288.34 230.404 294.246C226.515 295.641 222.58 297.292 218.611 298.422C218.017 297.337 218.219 294.471 218.408 293.221C218.141 292.751 217.862 292.459 217.443 292.128C213.96 289.369 210.138 286.922 206.54 284.302C201.86 280.856 197.307 277.251 192.881 273.487C185.277 267.11 177.871 260.085 171.257 252.676C167.37 248.321 163.721 243.687 160.063 239.138C167.883 234.57 176.276 230.844 184.227 226.475C185.832 225.593 191.983 221.552 193.254 221.448C198.212 214.644 203.416 207.96 208.196 201.033C205.402 202.007 201.317 204.143 198.449 204.314C202.479 198.18 204.906 192.418 206.007 185.119Z" fill="white"/>
<path d="M249.427 227.282C252.089 228.606 254.78 230.017 257.564 231.065C264.03 233.498 272.298 234.507 279.085 232.966C280.391 232.669 282.989 231.091 284.107 231.356C282.805 240.035 281.441 248.704 280.017 257.364C279.215 262.298 278.601 267.337 277.514 272.214C262.607 281.401 246.859 288.34 230.404 294.245C226.515 295.641 222.58 297.292 218.611 298.422C218.017 297.337 218.219 294.471 218.408 293.221C221.474 292.883 225.142 291.31 228.071 290.298C243.853 284.848 259.28 278.283 273.491 269.468C270.983 267.772 268.499 265.93 266.257 263.89C263.724 261.585 261.551 258.884 259.555 256.108C253.326 247.448 249.888 237.97 249.427 227.282Z" fill="#FDFDFD"/>
<path d="M208.196 201.033C211.219 197.813 215.743 195.842 219.675 193.926C223.777 198.302 228.082 202.491 232.321 206.735C237.116 211.535 241.852 216.375 246.741 221.083C243.188 228.101 238.85 234.844 234.645 241.491C229.441 249.716 224.153 257.988 218.318 265.781C212.881 259.781 194.478 231.31 192.031 223.926C192.411 223.079 192.792 222.255 193.254 221.447C198.212 214.644 203.416 207.96 208.196 201.033Z" fill="currentColor"/>
<path d="M197.651 223.828C201.599 219.547 205.012 214.033 208.463 209.289C209.762 207.504 211.05 205.545 212.641 204.005C213.766 202.918 217.538 200.46 219.159 200.597C219.516 200.627 219.577 200.916 219.759 201.185C218.814 203.342 215.334 215.039 215.18 217.315C215.058 219.123 219.006 253.85 219.548 255.404C219.205 256.034 218.74 256.638 218.341 257.237C216.032 253.491 213.348 249.908 210.932 246.222C206.205 239.011 201.656 231.464 197.651 223.828Z" fill="white"/>
<path d="M219.548 255.404C219.006 253.85 215.058 219.123 215.18 217.315C215.334 215.039 218.814 203.342 219.759 201.185C223.172 205.148 227.009 208.692 230.677 212.412C233.829 215.608 236.834 219.024 240.193 222.005C235.179 231.209 229.457 239.978 223.855 248.827C222.457 251.035 220.885 253.167 219.548 255.404Z" fill="white"/>
<path d="M222.676 209.524C223.239 209.517 223.859 209.482 224.4 209.658C227.13 210.544 230.931 215.338 232.255 217.831C232.131 218.178 231.996 218.521 231.852 218.86C231.03 220.78 230.037 221.606 228.116 222.353C226.541 222.515 225.033 222.528 223.513 222.01C221.577 221.351 219.948 220.006 219.08 218.137C218.353 216.568 218.231 214.592 218.903 212.983C219.612 211.285 221.015 210.2 222.676 209.524Z" fill="#FDFDFD"/>
<path d="M331 205H332L385 207.5V218.5C378.031 249.467 371.613 265.789 355.5 293H339C358.682 273.114 372.01 240.772 371.5 220H333L331 205Z" fill="white"/>
</g>
<defs>
<clipPath id="clip0_178_4">
<rect width="436" height="436" fill="white"/>
</clipPath>
</defs>
</svg>
